<?xml version="1.0" encoding="UTF-8"?>
<svg xmlns="http://www.w3.org/2000/svg" xmlns:xlink="http://www.w3.org/1999/xlink" width="130px" height="130px" viewBox="0 0 130 130" version="1.1">
<g id="surface1">
<path style=" stroke:none;fill-rule:nonzero;fill:rgb(99.215686%,50.196078%,52.941176%);fill-opacity:1;" d="M 49.421875 7.195312 C 23.101562 7.195312 1.761719 21.523438 1.761719 39.199219 C 1.761719 52.199219 13.300781 63.386719 29.875 68.398438 L 29.875 80.835938 C 29.875 82.074219 31.46875 82.582031 32.183594 81.570312 L 39.988281 70.578125 C 43.035156 70.988281 46.191406 71.207031 49.421875 71.207031 C 75.742188 71.207031 94.535156 56.878906 94.535156 39.199219 C 94.535156 21.523438 75.742188 7.195312 49.421875 7.195312 Z M 49.421875 7.195312 "/>
<path style=" stroke:none;fill-rule:nonzero;fill:rgb(99.607843%,39.215686%,43.529412%);fill-opacity:1;" d="M 49.421875 7.195312 C 48.136719 7.195312 46.863281 7.230469 45.605469 7.296875 C 68.445312 8.511719 86.753906 20.542969 89.171875 35.765625 C 89.429688 37.382812 88.144531 38.816406 86.507812 38.730469 C 85.488281 38.675781 84.460938 38.648438 83.421875 38.648438 C 61.339844 38.648438 43.441406 50.667969 43.441406 65.496094 C 43.441406 67.199219 43.679688 68.867188 44.132812 70.480469 C 44.167969 70.660156 44.207031 70.839844 44.25 71.019531 C 45.949219 71.140625 47.671875 71.207031 49.421875 71.207031 C 75.742188 71.207031 97.082031 56.878906 97.082031 39.199219 C 97.082031 21.523438 75.742188 7.195312 49.421875 7.195312 Z M 49.421875 7.195312 "/>
<path style=" stroke:none;fill-rule:nonzero;fill:rgb(54.117647%,78.823529%,99.607843%);fill-opacity:1;" d="M 88.257812 44.246094 C 110.335938 44.246094 125.691406 56.265625 125.691406 71.097656 C 125.691406 82 118.558594 91.386719 104.65625 95.589844 L 104.65625 105.378906 C 104.65625 106.621094 103.0625 107.128906 102.34375 106.117188 L 96.171875 97.417969 C 93.613281 97.765625 90.96875 97.945312 88.257812 97.945312 C 66.175781 97.945312 48.277344 85.925781 48.277344 71.097656 C 48.277344 56.265625 66.175781 44.246094 88.257812 44.246094 Z M 88.257812 44.246094 "/>
<path style=" stroke:none;fill-rule:nonzero;fill:rgb(37.647059%,71.764706%,100%);fill-opacity:1;" d="M 64.691406 76.808594 C 59.398438 76.808594 54.476562 77.867188 50.363281 79.683594 C 55.699219 90.300781 70.648438 97.945312 88.257812 97.945312 C 88.929688 97.945312 89.597656 97.933594 90.261719 97.914062 C 90.617188 96.761719 90.804688 95.566406 90.804688 94.347656 C 90.804688 84.660156 79.113281 76.808594 64.691406 76.808594 Z M 64.691406 76.808594 "/>
<path style=" stroke:none;fill-rule:nonzero;fill:rgb(37.647059%,71.764706%,100%);fill-opacity:1;" d="M 88.257812 44.246094 C 86.96875 44.246094 85.695312 44.289062 84.441406 44.367188 C 104.730469 45.660156 120.601562 57.132812 120.601562 71.097656 C 120.601562 81.269531 112.179688 90.121094 99.757812 94.675781 C 98.109375 95.28125 97.019531 96.859375 97.019531 98.613281 L 102.34375 106.117188 C 103.0625 107.128906 104.65625 106.621094 104.65625 105.378906 L 104.65625 95.589844 C 118.558594 91.386719 128.238281 82 128.238281 71.097656 C 128.238281 56.265625 110.335938 44.246094 88.257812 44.246094 Z M 88.257812 44.246094 "/>
<path style=" stroke:none;fill-rule:nonzero;fill:rgb(99.607843%,83.137255%,0.784314%);fill-opacity:1;" d="M 62.144531 81.898438 C 47.722656 81.898438 36.03125 89.75 36.03125 99.4375 C 36.03125 106.558594 42.355469 112.6875 51.433594 115.433594 L 51.433594 122.042969 C 51.433594 122.785156 52.390625 123.089844 52.820312 122.484375 L 56.976562 116.628906 C 58.648438 116.855469 60.375 116.972656 62.144531 116.972656 C 76.566406 116.972656 85.714844 109.121094 85.714844 99.4375 C 85.714844 89.75 76.566406 81.898438 62.144531 81.898438 Z M 62.144531 81.898438 "/>
<path style=" stroke:none;fill-rule:nonzero;fill:rgb(98.039216%,77.647059%,0%);fill-opacity:1;" d="M 62.144531 81.898438 C 61.066406 81.898438 60.007812 81.941406 58.964844 82.027344 C 71.886719 83.082031 81.898438 90.472656 81.898438 99.4375 C 81.898438 108.390625 71.902344 115.777344 58.992188 116.839844 C 60.027344 116.925781 61.078125 116.972656 62.144531 116.972656 C 76.566406 116.972656 88.257812 109.121094 88.257812 99.4375 C 88.257812 89.75 76.566406 81.898438 62.144531 81.898438 Z M 62.144531 81.898438 "/>
<path style=" stroke:none;fill-rule:nonzero;fill:rgb(0%,0%,0%);fill-opacity:1;" d="M 35.640625 39.792969 C 35.640625 38.738281 34.789062 37.882812 33.734375 37.882812 C 32.679688 37.882812 31.824219 38.738281 31.824219 39.792969 C 31.824219 40.847656 32.679688 41.703125 33.734375 41.703125 C 34.789062 41.703125 35.640625 40.847656 35.640625 39.792969 Z M 35.640625 39.792969 "/>
<path style=" stroke:none;fill-rule:nonzero;fill:rgb(0%,0%,0%);fill-opacity:1;" d="M 51.183594 39.792969 C 51.183594 38.738281 50.328125 37.882812 49.273438 37.882812 C 48.222656 37.882812 47.367188 38.738281 47.367188 39.792969 C 47.367188 40.847656 48.222656 41.703125 49.273438 41.703125 C 50.328125 41.703125 51.183594 40.847656 51.183594 39.792969 Z M 51.183594 39.792969 "/>
<path style=" stroke:none;fill-rule:nonzero;fill:rgb(0%,0%,0%);fill-opacity:1;" d="M 66.726562 39.792969 C 66.726562 38.738281 65.871094 37.882812 64.816406 37.882812 C 63.761719 37.882812 62.90625 38.738281 62.90625 39.792969 C 62.90625 40.847656 63.761719 41.703125 64.816406 41.703125 C 65.871094 41.703125 66.726562 40.847656 66.726562 39.792969 Z M 66.726562 39.792969 "/>
<path style=" stroke:none;fill-rule:nonzero;fill:rgb(0%,0%,0%);fill-opacity:1;" d="M 73.207031 72.992188 C 73.207031 74.046875 74.0625 74.898438 75.117188 74.898438 C 76.171875 74.898438 77.023438 74.046875 77.023438 72.992188 C 77.023438 71.9375 76.171875 71.082031 75.117188 71.082031 C 74.0625 71.082031 73.207031 71.9375 73.207031 72.992188 Z M 73.207031 72.992188 "/>
<path style=" stroke:none;fill-rule:nonzero;fill:rgb(0%,0%,0%);fill-opacity:1;" d="M 86.203125 72.992188 C 86.203125 74.046875 87.058594 74.898438 88.113281 74.898438 C 89.167969 74.898438 90.023438 74.046875 90.023438 72.992188 C 90.023438 71.9375 89.167969 71.082031 88.113281 71.082031 C 87.058594 71.082031 86.203125 71.9375 86.203125 72.992188 Z M 86.203125 72.992188 "/>
<path style=" stroke:none;fill-rule:nonzero;fill:rgb(0%,0%,0%);fill-opacity:1;" d="M 99.199219 72.992188 C 99.199219 74.046875 100.054688 74.898438 101.109375 74.898438 C 102.164062 74.898438 103.019531 74.046875 103.019531 72.992188 C 103.019531 71.9375 102.164062 71.082031 101.109375 71.082031 C 100.054688 71.082031 99.199219 71.9375 99.199219 72.992188 Z M 99.199219 72.992188 "/>
<path style=" stroke:none;fill-rule:nonzero;fill:rgb(0%,0%,0%);fill-opacity:1;" d="M 49.640625 101.257812 C 49.640625 102.3125 50.492188 103.167969 51.546875 103.167969 C 52.601562 103.167969 53.457031 102.3125 53.457031 101.257812 C 53.457031 100.203125 52.601562 99.351562 51.546875 99.351562 C 50.492188 99.351562 49.640625 100.203125 49.640625 101.257812 Z M 49.640625 101.257812 "/>
<path style=" stroke:none;fill-rule:nonzero;fill:rgb(0%,0%,0%);fill-opacity:1;" d="M 60.089844 101.257812 C 60.089844 102.3125 60.945312 103.167969 62 103.167969 C 63.054688 103.167969 63.90625 102.3125 63.90625 101.257812 C 63.90625 100.203125 63.054688 99.351562 62 99.351562 C 60.945312 99.351562 60.089844 100.203125 60.089844 101.257812 Z M 60.089844 101.257812 "/>
<path style=" stroke:none;fill-rule:nonzero;fill:rgb(0%,0%,0%);fill-opacity:1;" d="M 74.359375 101.257812 C 74.359375 100.203125 73.503906 99.351562 72.449219 99.351562 C 71.398438 99.351562 70.542969 100.203125 70.542969 101.257812 C 70.542969 102.3125 71.398438 103.167969 72.449219 103.167969 C 73.503906 103.167969 74.359375 102.3125 74.359375 101.257812 Z M 74.359375 101.257812 "/>
<path style=" stroke:none;fill-rule:nonzero;fill:rgb(0%,0%,0%);fill-opacity:1;" d="M 115.390625 49.234375 C 114.480469 48.699219 113.3125 49.003906 112.777344 49.914062 C 112.242188 50.820312 112.546875 51.992188 113.457031 52.527344 C 121.542969 57.277344 126.183594 64.046875 126.183594 71.097656 C 126.183594 80.78125 117.457031 89.679688 103.957031 93.761719 C 103.152344 94.007812 102.601562 94.75 102.601562 95.589844 L 102.601562 103.382812 L 97.582031 96.3125 C 97.171875 95.734375 96.472656 95.433594 95.769531 95.527344 C 93.746094 95.800781 91.675781 95.964844 89.597656 96.019531 C 89.246094 94.609375 88.675781 93.242188 87.898438 91.9375 C 87.644531 91.507812 87.367188 91.09375 87.074219 90.6875 C 83.457031 85.640625 76.800781 81.914062 68.769531 80.554688 C 63.621094 79.679688 58.261719 79.800781 53.171875 80.964844 C 51.109375 77.871094 50.058594 74.589844 50.039062 71.191406 C 50.039062 71.1875 50.039062 71.1875 50.039062 71.183594 L 50.039062 71.097656 C 50.039062 57.34375 67.117188 46.15625 88.109375 46.15625 C 89.308594 46.15625 90.507812 46.191406 91.707031 46.265625 C 96.789062 46.585938 101.75 47.574219 106.230469 49.175781 C 107.222656 49.53125 108.316406 49.015625 108.671875 48.023438 C 109.027344 47.03125 108.507812 45.9375 107.515625 45.582031 C 104.660156 44.5625 101.625 43.773438 98.496094 43.230469 C 98.722656 41.894531 98.84375 40.546875 98.84375 39.199219 C 98.84375 29.996094 93.585938 21.394531 84.039062 14.984375 C 74.726562 8.730469 62.378906 5.285156 49.273438 5.285156 C 24.027344 5.285156 2.851562 18.199219 0.0273438 35.324219 C -0.144531 36.363281 0.558594 37.34375 1.597656 37.515625 C 2.640625 37.6875 3.621094 36.984375 3.792969 35.945312 C 4.984375 28.726562 10.160156 22.015625 18.375 17.046875 C 26.839844 11.925781 37.816406 9.101562 49.273438 9.101562 C 74.503906 9.101562 95.027344 22.605469 95.027344 39.199219 C 95.027344 40.367188 94.921875 41.535156 94.71875 42.691406 C 92.527344 42.453125 90.316406 42.335938 88.109375 42.335938 C 77.058594 42.335938 66.640625 45.246094 58.777344 50.527344 C 52.371094 54.828125 47.03125 61.3125 46.304688 69.234375 C 44.214844 69.144531 42.132812 68.960938 40.097656 68.6875 C 39.394531 68.59375 38.695312 68.894531 38.285156 69.472656 L 31.636719 78.839844 L 31.636719 68.398438 C 31.636719 67.558594 31.085938 66.816406 30.28125 66.574219 C 23.355469 64.476562 17.261719 61.234375 12.65625 57.195312 C 8.085938 53.179688 5.089844 48.457031 4 43.539062 C 3.773438 42.511719 2.753906 41.859375 1.726562 42.089844 C 0.695312 42.316406 0.046875 43.335938 0.273438 44.363281 C 1.542969 50.082031 4.953125 55.507812 10.140625 60.0625 C 14.84375 64.191406 20.933594 67.542969 27.820312 69.800781 L 27.820312 80.835938 C 27.820312 82.226562 28.710938 83.445312 30.035156 83.867188 C 30.355469 83.96875 30.683594 84.019531 31.007812 84.019531 C 32.015625 84.019531 32.984375 83.535156 33.59375 82.675781 L 40.734375 72.617188 C 42.578125 72.832031 44.449219 72.980469 46.324219 73.054688 C 46.628906 76.152344 47.65625 79.207031 49.355469 82.058594 C 46.851562 82.933594 44.53125 84.066406 42.46875 85.449219 C 36.992188 89.128906 33.976562 94.097656 33.976562 99.4375 C 33.976562 106.835938 39.976562 113.550781 49.378906 116.820312 L 49.378906 122.042969 C 49.378906 123.210938 50.128906 124.234375 51.242188 124.585938 C 51.511719 124.671875 51.785156 124.714844 52.058594 124.714844 C 52.90625 124.714844 53.71875 124.308594 54.230469 123.589844 L 57.730469 118.660156 C 61.160156 119.019531 64.714844 118.9375 68.082031 118.425781 C 69.125 118.269531 69.839844 117.296875 69.679688 116.253906 C 69.523438 115.210938 68.546875 114.496094 67.507812 114.652344 C 64.121094 115.167969 60.507812 115.199219 57.085938 114.738281 C 56.382812 114.644531 55.683594 114.945312 55.273438 115.523438 L 53.199219 118.449219 L 53.199219 115.433594 C 53.199219 114.59375 52.648438 113.851562 51.839844 113.609375 C 43.308594 111.027344 37.792969 105.464844 37.792969 99.4375 C 37.792969 95.40625 40.210938 91.566406 44.597656 88.621094 C 46.976562 87.023438 49.765625 85.800781 52.8125 84.984375 C 56.609375 84.066406 60.425781 83.636719 64.332031 83.882812 C 69.609375 84.214844 74.4375 85.667969 78.207031 87.875 C 82.351562 90.3125 86.203125 94.332031 86.203125 99.4375 C 86.203125 104.734375 82.042969 109.640625 75.074219 112.5625 C 74.101562 112.96875 73.644531 114.089844 74.050781 115.0625 C 74.457031 116.03125 75.578125 116.488281 76.550781 116.082031 C 84.828125 112.609375 89.828125 106.550781 90.011719 99.820312 C 91.730469 99.765625 93.441406 99.648438 95.128906 99.453125 L 100.644531 107.222656 C 101.253906 108.082031 102.222656 108.5625 103.230469 108.5625 C 103.554688 108.5625 103.882812 108.515625 104.203125 108.410156 C 105.527344 107.988281 106.417969 106.769531 106.417969 105.378906 L 106.417969 96.988281 C 120.792969 92.210938 130 82.160156 130 71.097656 C 130 62.65625 124.675781 54.6875 115.390625 49.234375 Z M 115.390625 49.234375 "/>
</g>
</svg>
