<?xml version="1.0" encoding="UTF-8"?>
<svg xmlns="http://www.w3.org/2000/svg" xmlns:xlink="http://www.w3.org/1999/xlink" width="130px" height="130px" viewBox="0 0 130 130" version="1.1">
<g id="surface1">
<path style=" stroke:none;fill-rule:nonzero;fill:rgb(52.156863%,35.686275%,31.764706%);fill-opacity:1;" d="M 125.261719 118.277344 L 125.261719 88.289062 C 125.261719 78.261719 117.640625 70.015625 107.875 69.023438 C 107.222656 68.957031 106.5625 69.117188 105.894531 69.117188 C 95.199219 69.117188 86.964844 77.726562 86.964844 88.425781 L 86.96875 118.148438 Z M 125.261719 118.277344 "/>
<path style=" stroke:none;fill-rule:nonzero;fill:rgb(44.705882%,30.196078%,26.666667%);fill-opacity:1;" d="M 107.984375 69.035156 C 98.273438 70.078125 90.710938 78.300781 90.710938 88.289062 L 90.710938 118.054688 L 86.527344 118.152344 L 86.527344 88.289062 C 86.527344 77.59375 95.199219 68.921875 105.894531 68.921875 C 106.601562 68.921875 107.296875 68.960938 107.984375 69.035156 Z M 107.984375 69.035156 "/>
<path style=" stroke:none;fill-rule:nonzero;fill:rgb(76.862745%,53.72549%,34.509804%);fill-opacity:1;" d="M 111.296875 129.1875 L 111.296875 108.894531 L 110.496094 106.523438 L 111.296875 99.558594 L 100.488281 99.558594 L 100.945312 110.574219 L 100.488281 114.238281 L 100.488281 129.1875 L 105.890625 130 Z M 111.296875 129.1875 "/>
<path style=" stroke:none;fill-rule:nonzero;fill:rgb(100%,81.960784%,38.823529%);fill-opacity:1;" d="M 100.277344 111.085938 L 89.652344 115.292969 L 90.945312 130 L 105.890625 130 L 105.113281 129.140625 C 101.386719 125.042969 100.664062 119.753906 100.523438 114.238281 C 100.492188 113.023438 100.277344 112.3125 100.277344 111.085938 Z M 100.277344 111.085938 "/>
<path style=" stroke:none;fill-rule:nonzero;fill:rgb(100%,71.372549%,37.254902%);fill-opacity:1;" d="M 100.523438 114.238281 L 100.488281 114.25 L 89.941406 118.585938 L 89.632812 115.039062 L 100.488281 110.574219 L 100.945312 112.398438 Z M 100.523438 114.238281 "/>
<path style=" stroke:none;fill-rule:nonzero;fill:rgb(100%,81.960784%,38.823529%);fill-opacity:1;" d="M 122.394531 115.148438 L 111.296875 110.574219 C 111.296875 117.273438 111.226562 124.164062 106.636719 129.1875 L 105.890625 130 L 123.828125 130 C 125.273438 130 126.445312 128.828125 126.445312 127.382812 L 126.445312 121.199219 C 126.445312 118.546875 124.84375 116.15625 122.394531 115.148438 Z M 122.394531 115.148438 "/>
<path style=" stroke:none;fill-rule:nonzero;fill:rgb(69.803922%,47.843137%,28.627451%);fill-opacity:1;" d="M 100.488281 99.558594 C 100.488281 99.558594 100.488281 108.878906 100.488281 108.878906 C 100.488281 108.878906 100.492188 113.023438 100.523438 114.238281 L 103.242188 113.121094 C 103.632812 112.960938 103.890625 112.578125 103.890625 112.152344 L 103.890625 110.992188 C 103.890625 110.667969 104.179688 110.425781 104.5 110.476562 C 104.964844 110.554688 105.429688 110.597656 105.890625 110.597656 C 107.746094 110.597656 109.578125 109.96875 111.296875 108.894531 L 111.296875 99.558594 Z M 100.488281 99.558594 "/>
<path style=" stroke:none;fill-rule:nonzero;fill:rgb(76.862745%,53.72549%,34.509804%);fill-opacity:1;" d="M 94.289062 90.628906 C 94.3125 91.570312 93.953125 92.296875 94.148438 93.261719 C 95.582031 100.210938 101.214844 107.195312 105.890625 107.195312 C 111.300781 107.195312 117.976562 97.871094 117.976562 90.050781 C 117.976562 85.207031 116.34375 80.933594 113.246094 78.378906 C 112.601562 77.847656 112.070312 77.898438 111.300781 77.523438 C 111.054688 77.40625 110.769531 77.542969 110.703125 77.804688 C 109.257812 83.582031 104.359375 88.316406 98.386719 89.558594 L 94.621094 90.210938 C 94.425781 90.253906 94.289062 90.628906 94.289062 90.628906 Z M 94.289062 90.628906 "/>
<path style=" stroke:none;fill-rule:nonzero;fill:rgb(69.803922%,47.843137%,28.627451%);fill-opacity:1;" d="M 99.171875 92.148438 C 106.074219 90.660156 111.644531 85.0625 113.242188 78.382812 C 112.597656 77.851562 111.890625 77.390625 111.121094 77.019531 C 110.878906 76.902344 110.59375 77.039062 110.527344 77.300781 C 109.082031 83.074219 104.269531 87.847656 98.296875 89.089844 L 94.140625 89.976562 C 93.945312 90.019531 93.808594 90.195312 93.8125 90.394531 C 93.832031 91.335938 93.953125 92.296875 94.152344 93.261719 Z M 99.171875 92.148438 "/>
<path style=" stroke:none;fill-rule:nonzero;fill:rgb(72.941176%,90.196078%,93.72549%);fill-opacity:1;" d="M 44.660156 116.816406 L 29.511719 111.421875 C 26.660156 114.710938 21.71875 114.335938 18.871094 111.042969 L 7.9375 115.585938 C 5.484375 116.597656 3.816406 118.546875 3.816406 121.199219 L 3.816406 127.121094 C 3.816406 128.566406 4.988281 129.738281 6.433594 129.738281 L 6.957031 130 L 18.699219 130 L 23.933594 129.328125 L 29.511719 130 L 39.171875 130 L 44.660156 129.027344 Z M 44.660156 116.816406 "/>
<path style=" stroke:none;fill-rule:nonzero;fill:rgb(94.901961%,81.960784%,64.705882%);fill-opacity:1;" d="M 29.132812 102.175781 L 19.226562 102.175781 L 19.269531 110.039062 C 20.210938 111.125 20.832031 112.394531 22.101562 112.761719 C 24.679688 113.511719 27.597656 112.785156 29.507812 110.582031 L 29.511719 110.578125 L 29.511719 106.425781 Z M 29.132812 102.175781 "/>
<path style=" stroke:none;fill-rule:nonzero;fill:rgb(58.039216%,84.705882%,90.196078%);fill-opacity:1;" d="M 21.09375 112.800781 L 9.703125 117.957031 L 8.902344 118.292969 C 7.71875 118.777344 6.957031 119.917969 6.957031 121.199219 L 6.957031 130 L 6.171875 130 C 4.726562 130 3.554688 128.828125 3.554688 127.382812 L 3.554688 121.199219 C 3.554688 118.546875 5.15625 116.15625 7.605469 115.148438 L 18.203125 111.042969 C 18.941406 111.78125 21.09375 112.800781 21.09375 112.800781 Z M 21.09375 112.800781 "/>
<path style=" stroke:none;fill-rule:nonzero;fill:rgb(97.254902%,96.862745%,96.862745%);fill-opacity:1;" d="M 41.863281 115.664062 L 29.511719 130 L 18.699219 130 L 9.707031 117.957031 L 7.960938 115.292969 L 13.882812 113.234375 L 18.703125 110.574219 C 21.550781 113.867188 26.660156 113.867188 29.511719 110.578125 L 29.511719 110.574219 Z M 41.863281 115.664062 "/>
<path style=" stroke:none;fill-rule:nonzero;fill:rgb(94.901961%,73.333333%,53.333333%);fill-opacity:1;" d="M 22.101562 102.175781 L 18.703125 102.175781 L 18.703125 111.109375 L 21.402344 112.792969 C 21.402344 112.792969 22.015625 112.722656 22.101562 112.757812 L 22.101562 108.386719 C 22.101562 108.066406 22.390625 107.820312 22.707031 107.871094 C 23.171875 107.945312 23.636719 107.980469 24.105469 107.980469 C 25.917969 107.980469 27.753906 107.417969 29.511719 106.425781 L 29.511719 102.175781 Z M 22.101562 102.175781 "/>
<path style=" stroke:none;fill-rule:nonzero;fill:rgb(90.980392%,90.980392%,90.980392%);fill-opacity:1;" d="M 22.101562 112.761719 L 9.703125 117.953125 L 7.609375 115.148438 L 18.703125 110.574219 C 18.882812 110.664062 19.601562 111.96875 22.101562 112.761719 Z M 22.101562 112.761719 "/>
<path style=" stroke:none;fill-rule:nonzero;fill:rgb(94.901961%,81.960784%,64.705882%);fill-opacity:1;" d="M 36.554688 87.511719 C 36.554688 79.285156 32.332031 74.265625 24.105469 74.265625 C 15.878906 74.265625 11.65625 79.285156 11.65625 87.511719 C 11.65625 89.25 11.707031 91.011719 12.253906 92.714844 C 14.300781 99.078125 19.621094 104.582031 24.105469 104.582031 C 28.550781 104.582031 33.8125 99.179688 35.898438 92.890625 C 36.480469 91.132812 36.554688 89.308594 36.554688 87.511719 Z M 36.554688 87.511719 "/>
<path style=" stroke:none;fill-rule:nonzero;fill:rgb(94.901961%,73.333333%,53.333333%);fill-opacity:1;" d="M 31.128906 75.914062 C 30.253906 76.011719 29.433594 76.230469 28.746094 76.53125 L 28.738281 76.554688 C 28.675781 75.910156 28.507812 75.300781 28.230469 74.757812 C 26.984375 74.433594 25.605469 74.265625 24.105469 74.265625 C 15.878906 74.265625 11.394531 79.285156 11.394531 87.511719 C 11.394531 89.246094 11.710938 91.011719 12.257812 92.714844 C 12.441406 92.550781 12.636719 92.363281 12.851562 92.144531 C 14.480469 90.480469 17.222656 87.722656 20.453125 86.3125 C 22.429688 85.449219 24.101562 85.210938 25.394531 84.085938 C 25.648438 83.867188 26.03125 83.925781 26.199219 84.214844 C 26.789062 85.226562 28.097656 86.617188 30.746094 88.191406 C 33.003906 89.53125 34.917969 91.429688 35.898438 92.890625 C 36.480469 91.132812 36.816406 89.308594 36.816406 87.511719 C 36.816406 82.0625 34.847656 78.023438 31.128906 75.914062 Z M 31.128906 75.914062 "/>
<path style=" stroke:none;fill-rule:nonzero;fill:rgb(55.686275%,52.54902%,55.686275%);fill-opacity:1;" d="M 28.765625 73.414062 C 29.695312 73.011719 30.84375 72.46875 32.070312 72.457031 C 33.957031 72.441406 35.984375 73.011719 37.496094 74.542969 C 42.445312 79.554688 39.847656 87.28125 37.945312 90.671875 C 37.769531 90.988281 37.335938 91.039062 37.097656 90.765625 C 36.144531 89.691406 33.804688 87.226562 30.664062 85.21875 C 29.640625 84.5625 28.757812 83.792969 28.039062 82.960938 C 27.199219 81.996094 26.9375 80.734375 26.570312 79.679688 Z M 28.765625 73.414062 "/>
<path style=" stroke:none;fill-rule:nonzero;fill:rgb(46.27451%,42.745098%,47.058824%);fill-opacity:1;" d="M 31.546875 77.367188 C 30.839844 79.445312 29.628906 81.351562 28.042969 82.960938 C 27.199219 81.996094 26.582031 80.941406 26.214844 79.886719 L 28.746094 73.128906 C 29.675781 72.726562 30.84375 72.46875 32.070312 72.457031 C 32.285156 74.003906 32.113281 75.6875 31.546875 77.367188 Z M 31.546875 77.367188 "/>
<path style=" stroke:none;fill-rule:nonzero;fill:rgb(55.686275%,52.54902%,55.686275%);fill-opacity:1;" d="M 28.023438 70.988281 C 27.15625 69.636719 25.609375 68.785156 23.710938 68.484375 C 20.675781 68 16.878906 69.402344 13.394531 71.949219 C 6.820312 76.753906 8.164062 86.164062 10.226562 90.34375 C 10.402344 90.703125 10.890625 90.746094 11.125 90.421875 C 11.484375 89.925781 12.050781 89.5625 12.851562 88.746094 C 14.480469 87.082031 17.058594 85.027344 20.714844 83.695312 C 27.308594 81.296875 30.273438 74.503906 28.023438 70.988281 Z M 28.023438 70.988281 "/>
<path style=" stroke:none;fill-rule:nonzero;fill:rgb(46.27451%,42.745098%,47.058824%);fill-opacity:1;" d="M 23.742188 68.488281 C 21.441406 68.820312 18.945312 69.792969 16.648438 71.472656 C 10.945312 75.640625 11.308594 83.902344 12.855469 88.746094 C 12.054688 89.5625 11.480469 90.285156 11.121094 90.78125 C 10.890625 91.101562 10.398438 91.058594 10.226562 90.703125 C 8.164062 86.523438 6.675781 76.277344 13.25 71.472656 C 16.75 68.914062 20.699219 67.992188 23.742188 68.488281 Z M 23.742188 68.488281 "/>
<path style=" stroke:none;fill-rule:nonzero;fill:rgb(97.254902%,96.862745%,96.862745%);fill-opacity:1;" d="M 37.277344 50.691406 L 31.203125 50.65625 C 30.464844 50.65625 29.757812 50.945312 29.234375 51.464844 L 25.140625 55.488281 C 24.589844 56.027344 23.710938 56.023438 23.164062 55.480469 L 19.15625 51.476562 C 18.628906 50.953125 17.914062 50.65625 17.171875 50.65625 L 10.859375 50.65625 C 8.070312 50.65625 5.8125 48.398438 5.8125 45.609375 L 5.8125 27.925781 C 5.8125 25.714844 6.972656 23.574219 8.949219 22.890625 C 9.46875 22.710938 10.023438 22.617188 10.601562 22.617188 L 42.75 22.617188 L 42.75 45.871094 C 42.75 46.449219 42.652344 47.003906 42.472656 47.519531 C 41.789062 49.5 39.488281 50.691406 37.277344 50.691406 Z M 37.277344 50.691406 "/>
<path style=" stroke:none;fill-rule:nonzero;fill:rgb(90.980392%,90.980392%,90.980392%);fill-opacity:1;" d="M 42.472656 47.519531 C 41.789062 49.496094 39.910156 50.917969 37.699219 50.917969 L 31.464844 50.917969 C 30.726562 50.917969 30.019531 51.210938 29.496094 51.726562 L 25.140625 56.011719 C 24.59375 56.546875 23.710938 56.546875 23.164062 56.003906 L 18.894531 51.738281 C 18.367188 51.214844 17.652344 50.917969 16.910156 50.917969 L 10.597656 50.917969 C 7.808594 50.917969 5.550781 48.65625 5.550781 45.867188 L 5.550781 27.667969 C 5.550781 25.453125 6.972656 23.574219 8.949219 22.890625 L 8.949219 45.867188 C 8.949219 46.777344 9.6875 47.519531 10.597656 47.519531 L 16.910156 47.519531 C 18.566406 47.519531 20.121094 48.164062 21.292969 49.332031 L 23.429688 51.464844 C 23.839844 51.871094 24.496094 51.875 24.90625 51.472656 L 27.113281 49.300781 C 28.269531 48.160156 29.835938 47.519531 31.464844 47.519531 Z M 42.472656 47.519531 "/>
<path style=" stroke:none;fill-rule:nonzero;fill:rgb(87.45098%,39.215686%,43.137255%);fill-opacity:1;" d="M 23.738281 32.921875 C 23.96875 33.140625 24.335938 33.132812 24.570312 32.914062 C 25.402344 32.136719 26.535156 31.660156 27.769531 31.664062 C 30.304688 31.671875 32.375 33.753906 32.339844 36.253906 C 32.289062 39.558594 28.765625 42.386719 26.355469 43.933594 C 25.503906 44.480469 24.796875 44.527344 24.425781 44.71875 C 24.253906 44.808594 24.046875 44.8125 23.871094 44.726562 C 22.429688 44.015625 16.226562 40.851562 16.316406 36.242188 C 16.355469 34.386719 17.265625 32.832031 18.867188 32.125 C 19.03125 32.050781 19.199219 31.882812 19.378906 31.832031 C 19.757812 31.726562 20.152344 31.667969 20.558594 31.664062 C 21.792969 31.65625 22.910156 32.140625 23.738281 32.921875 Z M 23.738281 32.921875 "/>
<path style=" stroke:none;fill-rule:nonzero;fill:rgb(86.27451%,28.627451%,33.333333%);fill-opacity:1;" d="M 26.355469 43.933594 C 25.507812 44.480469 24.792969 44.867188 24.421875 45.0625 C 24.25 45.152344 24.046875 45.15625 23.871094 45.070312 C 22.425781 44.355469 15.867188 40.863281 15.960938 36.253906 C 16.003906 34.203125 17.453125 32.386719 19.378906 31.832031 C 18.734375 32.625 18.339844 33.625 18.316406 34.683594 C 18.238281 38.417969 23.5625 42.234375 26.355469 43.933594 Z M 26.355469 43.933594 "/>
<path style=" stroke:none;fill-rule:nonzero;fill:rgb(97.254902%,96.862745%,96.862745%);fill-opacity:1;" d="M 119.082031 50.65625 L 112.847656 50.65625 C 112.109375 50.65625 111.402344 50.945312 110.878906 51.464844 L 106.785156 55.75 C 106.238281 56.289062 105.355469 56.285156 104.8125 55.742188 L 100.800781 51.476562 C 100.273438 50.953125 99.5625 50.65625 98.816406 50.65625 L 92.507812 50.65625 C 89.71875 50.65625 87.457031 48.398438 87.457031 45.609375 L 87.789062 23.132812 L 92.882812 22.613281 L 119.34375 22.613281 C 122.132812 22.613281 124.394531 24.875 124.394531 27.664062 L 124.394531 45.867188 C 124.394531 46.445312 124.296875 47.003906 124.117188 47.519531 C 123.433594 49.5 121.292969 50.65625 119.082031 50.65625 Z M 119.082031 50.65625 "/>
<path style=" stroke:none;fill-rule:nonzero;fill:rgb(87.45098%,39.215686%,43.137255%);fill-opacity:1;" d="M 105.382812 32.921875 C 105.617188 33.140625 105.980469 33.132812 106.214844 32.914062 C 107.050781 32.136719 108.179688 31.660156 109.417969 31.664062 C 111.953125 31.671875 114.019531 33.753906 113.984375 36.253906 C 113.9375 39.558594 110.410156 42.386719 108.003906 43.933594 C 107.152344 44.480469 106.441406 44.527344 106.070312 44.71875 C 105.898438 44.808594 105.695312 44.8125 105.519531 44.726562 C 104.078125 44.015625 97.871094 40.851562 97.964844 36.242188 C 98 34.386719 98.910156 32.832031 100.511719 32.125 C 100.679688 32.050781 100.84375 31.882812 101.027344 31.832031 C 101.402344 31.726562 101.796875 31.667969 102.203125 31.664062 C 103.4375 31.65625 104.554688 32.140625 105.382812 32.921875 Z M 105.382812 32.921875 "/>
<path style=" stroke:none;fill-rule:nonzero;fill:rgb(86.27451%,28.627451%,33.333333%);fill-opacity:1;" d="M 108.003906 43.933594 C 107.152344 44.480469 106.4375 44.867188 106.070312 45.0625 C 105.894531 45.152344 105.691406 45.15625 105.515625 45.070312 C 104.074219 44.355469 97.511719 40.863281 97.605469 36.253906 C 97.648438 34.203125 99.097656 32.386719 101.027344 31.832031 C 100.378906 32.625 99.984375 33.625 99.960938 34.683594 C 99.886719 38.417969 105.207031 42.234375 108.003906 43.933594 Z M 108.003906 43.933594 "/>
<path style=" stroke:none;fill-rule:nonzero;fill:rgb(90.980392%,90.980392%,90.980392%);fill-opacity:1;" d="M 113.109375 47.519531 C 111.46875 47.519531 109.925781 48.152344 108.753906 49.300781 L 106.179688 51.835938 C 105.976562 52.035156 105.648438 52.035156 105.445312 51.832031 L 102.941406 49.332031 C 101.777344 48.171875 100.203125 47.519531 98.558594 47.519531 L 92.246094 47.519531 C 91.332031 47.519531 90.59375 46.78125 90.59375 45.867188 L 90.59375 36.710938 C 90.59375 36.585938 90.640625 36.46875 90.722656 36.375 C 90.972656 36.078125 91.199219 35.765625 91.394531 35.441406 C 92.367188 33.820312 92.882812 31.964844 92.882812 30.070312 L 92.882812 22.613281 L 87.195312 22.613281 L 87.195312 45.867188 C 87.195312 48.65625 89.457031 50.917969 92.246094 50.917969 L 98.558594 50.917969 C 99.300781 50.917969 100.015625 51.214844 100.539062 51.738281 L 104.8125 56 C 105.355469 56.546875 106.238281 56.546875 106.785156 56.007812 L 111.140625 51.726562 C 111.667969 51.210938 112.371094 50.917969 113.109375 50.917969 L 119.34375 50.917969 C 121.554688 50.917969 123.433594 49.496094 124.117188 47.519531 Z M 113.109375 47.519531 "/>
<path style=" stroke:none;fill-rule:nonzero;fill:rgb(97.254902%,96.862745%,96.862745%);fill-opacity:1;" d="M 81.667969 36.464844 L 74.109375 36.722656 C 72.910156 36.722656 71.769531 37.234375 70.972656 38.125 L 66.582031 42.957031 C 65.796875 43.832031 64.421875 43.828125 63.644531 42.945312 L 59.582031 38.027344 C 58.785156 37.121094 57.632812 36.601562 56.421875 36.601562 L 47.757812 37.085938 C 43.882812 37.085938 40.742188 33.945312 40.742188 30.070312 L 40.742188 7.015625 C 40.742188 4.464844 42.105469 2.230469 44.140625 1 C 45.199219 0.367188 46.433594 0 47.757812 0 L 82.46875 0 C 86.34375 0 89.480469 3.140625 89.480469 7.015625 L 89.480469 30.070312 C 89.480469 31.390625 89.117188 32.628906 88.480469 33.683594 C 87.253906 35.722656 84.21875 36.464844 81.667969 36.464844 Z M 81.667969 36.464844 "/>
<path style=" stroke:none;fill-rule:nonzero;fill:rgb(90.980392%,90.980392%,90.980392%);fill-opacity:1;" d="M 88.480469 33.683594 C 87.25 35.722656 85.019531 37.085938 82.46875 37.085938 L 74.105469 37.085938 C 72.90625 37.085938 71.765625 37.59375 70.964844 38.488281 L 66.585938 43.382812 C 65.804688 44.261719 64.425781 44.253906 63.648438 43.371094 L 59.375 38.511719 C 58.574219 37.605469 57.425781 37.085938 56.214844 37.085938 L 47.757812 37.085938 C 43.882812 37.085938 40.742188 33.945312 40.742188 30.070312 L 40.742188 7.015625 C 40.742188 4.464844 42.105469 2.230469 44.140625 1 L 44.140625 30.070312 C 44.140625 32.066406 45.761719 33.683594 47.757812 33.683594 L 56.214844 33.683594 C 58.402344 33.683594 60.484375 34.625 61.925781 36.265625 L 64.550781 39.246094 C 64.859375 39.597656 65.40625 39.597656 65.722656 39.25 L 68.433594 36.21875 C 69.875 34.605469 71.9375 33.683594 74.105469 33.683594 Z M 88.480469 33.683594 "/>
<path style=" stroke:none;fill-rule:nonzero;fill:rgb(87.45098%,39.215686%,43.137255%);fill-opacity:1;" d="M 64.480469 11.464844 C 64.835938 11.800781 65.398438 11.792969 65.757812 11.457031 C 67.039062 10.261719 68.773438 9.53125 70.667969 9.535156 C 74.558594 9.546875 77.730469 12.742188 77.675781 16.578125 C 77.601562 21.894531 71.660156 26.402344 67.976562 28.691406 C 66.90625 29.359375 66.105469 29.539062 65.613281 29.796875 C 65.347656 29.933594 65.035156 29.9375 64.765625 29.804688 C 62.554688 28.714844 52.890625 24.054688 53.035156 16.984375 C 53.097656 13.949219 54.683594 10.835938 57.488281 9.890625 C 58.15625 9.667969 58.867188 9.542969 59.601562 9.535156 C 61.496094 9.523438 63.210938 10.269531 64.480469 11.464844 Z M 64.480469 11.464844 "/>
<path style=" stroke:none;fill-rule:nonzero;fill:rgb(86.27451%,28.627451%,33.333333%);fill-opacity:1;" d="M 67.976562 28.691406 C 66.902344 29.359375 66.023438 29.835938 65.535156 30.089844 C 65.269531 30.230469 64.953125 30.230469 64.6875 30.101562 C 62.472656 29.007812 52.40625 23.652344 52.550781 16.582031 C 52.609375 13.542969 54.683594 10.835938 57.488281 9.894531 C 56.246094 11.175781 55.464844 12.902344 55.425781 14.75 C 55.304688 20.792969 64.054688 26.484375 67.976562 28.691406 Z M 67.976562 28.691406 "/>
<path style=" stroke:none;fill-rule:nonzero;fill:rgb(89.019608%,65.490196%,43.529412%);fill-opacity:1;" d="M 71.867188 91.65625 L 58.25 91.65625 L 58.894531 100.734375 L 58.25 105.535156 L 58.253906 105.535156 C 58.867188 106.246094 59.296875 107.085938 60.0625 107.589844 C 62.976562 109.519531 67.039062 109.6875 69.914062 107.957031 C 70.707031 107.484375 71.21875 106.28125 71.863281 105.539062 L 71.867188 105.535156 L 71.867188 99.769531 L 71.316406 98.863281 Z M 71.867188 91.65625 "/>
<path style=" stroke:none;fill-rule:nonzero;fill:rgb(80%,95.686275%,62.352941%);fill-opacity:1;" d="M 86.082031 111.390625 L 78.960938 108.457031 L 71.867188 106.300781 C 68.273438 110.445312 61.839844 110.820312 58.25 106.671875 L 44.558594 111.390625 C 41.617188 112.605469 39.695312 115.472656 39.695312 118.652344 L 39.957031 129.476562 L 42.574219 130 L 59.757812 130 L 65.320312 128.738281 L 70.25 130 L 90.945312 130 L 90.945312 118.65625 C 90.945312 115.472656 89.023438 112.605469 86.082031 111.390625 Z M 86.082031 111.390625 "/>
<path style=" stroke:none;fill-rule:nonzero;fill:rgb(83.921569%,60%,36.078431%);fill-opacity:1;" d="M 61.652344 91.65625 L 58.25 91.65625 L 58.25 105.535156 C 58.679688 106.027344 58.488281 106.859375 58.984375 107.234375 C 59.550781 107.664062 60.816406 107.617188 61.449219 107.894531 L 61.449219 101.4375 C 61.449219 101.101562 61.761719 100.851562 62.089844 100.929688 C 63.035156 101.148438 64.097656 101.382812 65.058594 101.382812 C 67.546875 101.382812 69.824219 100.800781 71.867188 99.769531 L 71.867188 91.65625 Z M 61.652344 91.65625 "/>
<path style=" stroke:none;fill-rule:nonzero;fill:rgb(70.196078%,89.803922%,62.352941%);fill-opacity:1;" d="M 61.148438 107.894531 L 53.273438 111.261719 L 45.332031 114.535156 C 43.65625 115.226562 42.574219 116.84375 42.574219 118.652344 L 42.574219 130 L 39.171875 130 L 39.171875 118.652344 C 39.171875 115.472656 41.09375 112.601562 44.035156 111.390625 L 51.121094 108.472656 L 54.355469 107.472656 L 58.109375 105.789062 C 59.023438 106.84375 59.960938 107.375 61.148438 107.894531 Z M 61.148438 107.894531 "/>
<path style=" stroke:none;fill-rule:nonzero;fill:rgb(97.254902%,96.862745%,96.862745%);fill-opacity:1;" d="M 78.960938 108.457031 C 78.789062 108.65625 78.675781 108.785156 78.664062 108.800781 C 73.710938 114.699219 70.765625 122.023438 70.25 129.710938 L 70.25 130 L 59.757812 130 L 59.757812 129.8125 C 59.34375 123.128906 57.085938 116.714844 53.273438 111.261719 C 52.628906 110.339844 52.230469 109.527344 51.492188 108.660156 L 51.414062 108.558594 L 58.25 105.804688 C 59.164062 106.859375 60.261719 107.378906 61.449219 107.894531 C 64.929688 109.414062 69.1875 108.625 71.863281 105.539062 L 71.867188 105.535156 Z M 78.960938 108.457031 "/>
<path style=" stroke:none;fill-rule:nonzero;fill:rgb(90.980392%,90.980392%,90.980392%);fill-opacity:1;" d="M 61.449219 107.894531 L 53.273438 111.265625 C 52.628906 110.335938 51.933594 109.441406 51.199219 108.574219 L 51.121094 108.472656 L 58.25 105.535156 C 58.878906 106.261719 59.59375 106.859375 60.363281 107.328125 C 60.4375 107.375 60.507812 107.417969 60.578125 107.457031 C 60.863281 107.621094 61.152344 107.765625 61.449219 107.894531 Z M 61.449219 107.894531 "/>
<path style=" stroke:none;fill-rule:nonzero;fill:rgb(89.019608%,65.490196%,43.529412%);fill-opacity:1;" d="M 79.863281 76.292969 C 79.863281 66.4375 74.910156 58.542969 65.058594 58.542969 C 55.203125 58.542969 50.738281 66.507812 50.738281 76.359375 C 50.738281 78.003906 49.984375 79.726562 50.28125 81.414062 C 51.753906 89.832031 56.847656 97.980469 65.058594 97.980469 C 73.796875 97.980469 79.007812 88.738281 80.074219 79.773438 C 80.210938 78.632812 79.863281 77.40625 79.863281 76.292969 Z M 79.863281 76.292969 "/>
<path style=" stroke:none;fill-rule:nonzero;fill:rgb(83.921569%,60%,36.078431%);fill-opacity:1;" d="M 80.277344 76.382812 C 80.277344 69.179688 77.40625 62.976562 72.007812 60.160156 C 71.839844 60.375 71.488281 60.238281 71.546875 59.925781 C 69.667969 59.039062 67.5 58.542969 65.058594 58.542969 C 55.203125 58.542969 49.835938 66.53125 49.835938 76.382812 C 49.835938 78.027344 49.984375 79.726562 50.28125 81.414062 C 50.507812 81.109375 50.824219 80.886719 51.121094 80.605469 C 53.699219 78.179688 57.398438 78.09375 57.792969 75.558594 C 57.839844 75.242188 58.140625 75.035156 58.449219 75.121094 C 61.382812 75.933594 66.140625 74.078125 67.734375 70.851562 C 67.886719 70.542969 68.289062 70.46875 68.550781 70.699219 C 70.039062 72.003906 72 71.96875 72.851562 71.878906 C 73.09375 71.855469 73.324219 72 73.402344 72.230469 C 74.882812 76.558594 78.941406 74.96875 80.074219 79.773438 C 80.210938 78.632812 80.277344 77.496094 80.277344 76.382812 Z M 80.277344 76.382812 "/>
<path style=" stroke:none;fill-rule:nonzero;fill:rgb(52.156863%,35.686275%,31.764706%);fill-opacity:1;" d="M 81.625 62.984375 C 81.488281 62.945312 81.234375 62.898438 81.019531 62.859375 C 80.851562 62.832031 80.753906 62.652344 80.828125 62.496094 C 81.226562 61.648438 81.417969 60.679688 81.324219 59.660156 C 81.089844 57.039062 78.96875 54.917969 76.347656 54.691406 C 74.644531 54.539062 73.085938 55.171875 71.984375 56.261719 C 71.835938 56.410156 71.585938 56.335938 71.542969 56.128906 C 70.945312 53.0625 68.246094 50.746094 65 50.746094 C 63.414062 50.746094 61.957031 51.300781 60.8125 52.226562 C 60.699219 52.316406 60.535156 52.300781 60.441406 52.1875 C 59.433594 50.988281 57.925781 50.222656 56.238281 50.222656 C 53.453125 50.222656 51.15625 52.292969 50.796875 54.976562 C 50.777344 55.105469 50.675781 55.199219 50.550781 55.207031 C 49.933594 55.242188 49.339844 55.347656 48.769531 55.515625 C 45.527344 56.476562 43.511719 59.621094 43.511719 63.179688 C 43.511719 65.199219 44.261719 66.730469 45.515625 68.121094 C 45.5625 68.171875 45.585938 68.238281 45.582031 68.308594 C 45.546875 68.839844 45.398438 71.332031 45.828125 73.621094 C 46.613281 77.804688 49.835938 78.957031 49.835938 78.957031 C 49.835938 77.722656 50.433594 77.25 51.121094 76.683594 C 52.722656 75.359375 55.484375 75.121094 56.179688 72.683594 C 56.214844 72.554688 56.335938 72.472656 56.46875 72.496094 C 56.890625 72.570312 57.789062 72.714844 58.328125 72.714844 C 62.339844 72.714844 65.765625 70.207031 67.121094 66.675781 C 67.191406 66.492188 67.433594 66.460938 67.554688 66.613281 C 68.726562 68.101562 70.542969 69.054688 72.585938 69.054688 C 73.1875 69.054688 73.769531 68.96875 74.320312 68.816406 C 74.457031 68.777344 74.59375 68.855469 74.636719 68.988281 C 76.242188 74.230469 80.257812 72.539062 80.257812 77.433594 C 82.890625 76.246094 84.460938 72.1875 85.210938 69.488281 C 86 66.65625 84.347656 63.773438 81.625 62.984375 Z M 81.625 62.984375 "/>
<path style=" stroke:none;fill-rule:nonzero;fill:rgb(44.705882%,30.196078%,26.666667%);fill-opacity:1;" d="M 51.121094 76.683594 C 50.433594 77.25 49.984375 78.046875 49.984375 79.28125 C 49.984375 79.28125 46.296875 77.949219 45.511719 73.761719 C 45.085938 71.472656 45.207031 69.003906 45.242188 68.472656 C 45.246094 68.402344 45.21875 68.335938 45.175781 68.289062 C 43.921875 66.894531 43.160156 65.058594 43.160156 63.039062 C 43.160156 59.480469 45.527344 56.476562 48.773438 55.519531 C 47.09375 56.957031 46.035156 59.089844 46.035156 61.46875 C 46.035156 63.488281 46.800781 65.328125 48.054688 66.71875 C 48.097656 66.769531 48.125 66.832031 48.117188 66.902344 C 48.085938 67.433594 47.960938 69.90625 48.390625 72.191406 C 48.8125 74.433594 50.054688 75.851562 51.121094 76.683594 Z M 51.121094 76.683594 "/>
</g>
</svg>
