<?xml version="1.0" encoding="UTF-8"?>
<svg xmlns="http://www.w3.org/2000/svg" xmlns:xlink="http://www.w3.org/1999/xlink" width="80px" height="80px" viewBox="0 0 80 80" version="1.1">
<g id="surface1">
<path style=" stroke:none;fill-rule:nonzero;fill:rgb(98.823529%,83.921569%,29.411765%);fill-opacity:1;" d="M 58.460938 17.578125 C 47.144531 17.578125 37.957031 26.765625 37.957031 38.082031 C 37.957031 49.398438 47.144531 58.585938 58.460938 58.585938 C 69.777344 58.585938 78.96875 49.398438 78.96875 38.082031 C 78.96875 26.746094 69.777344 17.578125 58.460938 17.578125 Z M 58.460938 42.171875 C 56.207031 42.171875 54.351562 40.335938 54.351562 38.0625 C 54.351562 35.804688 56.1875 33.953125 58.460938 33.953125 C 60.71875 33.953125 62.570312 35.785156 62.570312 38.0625 C 62.550781 40.335938 60.71875 42.171875 58.460938 42.171875 Z M 58.460938 42.171875 "/>
<path style=" stroke:none;fill-rule:nonzero;fill:rgb(96.078431%,67.058824%,20%);fill-opacity:1;" d="M 58.3125 17.578125 C 57.578125 17.578125 56.839844 17.617188 56.121094 17.703125 C 66.40625 18.796875 74.4375 27.503906 74.4375 38.082031 C 74.4375 48.660156 66.425781 57.367188 56.121094 58.460938 C 56.839844 58.546875 57.578125 58.585938 58.3125 58.585938 C 69.632812 58.585938 78.820312 49.398438 78.820312 38.082031 C 78.820312 26.746094 69.652344 17.578125 58.3125 17.578125 Z M 58.3125 17.578125 "/>
<path style=" stroke:none;fill-rule:nonzero;fill:rgb(100%,92.54902%,65.098039%);fill-opacity:1;" d="M 58.3125 58.585938 C 59.050781 58.585938 59.789062 58.546875 60.507812 58.460938 C 50.222656 57.367188 42.191406 48.660156 42.191406 38.082031 C 42.191406 27.503906 50.199219 18.796875 60.507812 17.703125 C 59.789062 17.617188 59.050781 17.578125 58.3125 17.578125 C 46.996094 17.578125 37.808594 26.765625 37.808594 38.082031 C 37.808594 49.398438 46.996094 58.585938 58.3125 58.585938 Z M 58.3125 58.585938 "/>
<path style=" stroke:none;fill-rule:nonzero;fill:rgb(25.098039%,16.078431%,26.27451%);fill-opacity:1;" d="M 58.460938 59.597656 C 46.597656 59.597656 36.921875 49.945312 36.921875 38.0625 C 36.921875 26.195312 46.574219 16.523438 58.460938 16.523438 C 70.328125 16.523438 80 26.175781 80 38.0625 C 79.980469 49.945312 70.328125 59.597656 58.460938 59.597656 Z M 58.460938 18.585938 C 47.714844 18.585938 38.988281 27.332031 38.988281 38.0625 C 38.988281 48.808594 47.734375 57.535156 58.460938 57.535156 C 69.210938 57.535156 77.933594 48.789062 77.933594 38.0625 C 77.933594 27.332031 69.1875 18.585938 58.460938 18.585938 Z M 58.460938 43.203125 C 55.636719 43.203125 53.339844 40.90625 53.339844 38.082031 C 53.339844 35.257812 55.636719 32.960938 58.460938 32.960938 C 61.285156 32.960938 63.582031 35.257812 63.582031 38.082031 C 63.582031 40.90625 61.285156 43.203125 58.460938 43.203125 Z M 58.460938 35.003906 C 56.773438 35.003906 55.386719 36.375 55.386719 38.082031 C 55.386719 39.769531 56.753906 41.160156 58.460938 41.160156 C 60.148438 41.160156 61.539062 39.789062 61.539062 38.082031 C 61.539062 36.375 60.148438 35.003906 58.460938 35.003906 Z M 58.460938 35.003906 "/>
<path style=" stroke:none;fill-rule:nonzero;fill:rgb(96.078431%,67.058824%,20%);fill-opacity:1;" d="M 58.3125 29.738281 C 58.019531 29.738281 57.722656 29.757812 57.429688 29.777344 C 61.601562 30.222656 64.867188 33.761719 64.867188 38.0625 C 64.867188 42.359375 61.601562 45.902344 57.429688 46.34375 C 57.722656 46.363281 58.019531 46.386719 58.3125 46.386719 C 62.910156 46.386719 66.636719 42.65625 66.636719 38.0625 C 66.660156 33.46875 62.929688 29.738281 58.3125 29.738281 Z M 58.3125 29.738281 "/>
<path style=" stroke:none;fill-rule:nonzero;fill:rgb(100%,92.54902%,65.098039%);fill-opacity:1;" d="M 58.3125 46.40625 C 58.609375 46.40625 58.902344 46.386719 59.199219 46.363281 C 55.027344 45.921875 51.761719 42.382812 51.761719 38.082031 C 51.761719 33.78125 55.027344 30.242188 59.199219 29.800781 C 58.902344 29.777344 58.609375 29.757812 58.3125 29.757812 C 53.71875 29.757812 49.988281 33.488281 49.988281 38.082031 C 49.988281 42.675781 53.71875 46.40625 58.3125 46.40625 Z M 58.3125 46.40625 "/>
<path style=" stroke:none;fill-rule:nonzero;fill:rgb(25.098039%,16.078431%,26.27451%);fill-opacity:1;" d="M 58.460938 46.785156 C 53.65625 46.785156 49.757812 42.886719 49.757812 38.082031 C 49.757812 33.277344 53.65625 29.378906 58.460938 29.378906 C 63.265625 29.378906 67.164062 33.277344 67.164062 38.082031 C 67.164062 42.886719 63.265625 46.785156 58.460938 46.785156 Z M 58.460938 30.390625 C 54.226562 30.390625 50.769531 33.847656 50.769531 38.082031 C 50.769531 42.316406 54.226562 45.773438 58.460938 45.773438 C 62.699219 45.773438 66.152344 42.316406 66.152344 38.082031 C 66.132812 33.847656 62.699219 30.390625 58.460938 30.390625 Z M 58.460938 30.390625 "/>
<path style=" stroke:none;fill-rule:nonzero;fill:rgb(34.901961%,76.470588%,94.117647%);fill-opacity:1;" d="M 7.1875 79.09375 C 3.792969 79.09375 1.03125 76.332031 1.03125 72.941406 C 1.03125 69.546875 3.792969 66.785156 7.1875 66.785156 L 52.285156 66.785156 C 55.679688 66.785156 58.441406 64.023438 58.441406 60.632812 L 58.441406 72.941406 C 58.441406 76.332031 55.679688 79.09375 52.285156 79.09375 Z M 7.1875 79.09375 "/>
<path style=" stroke:none;fill-rule:nonzero;fill:rgb(12.941176%,62.745098%,83.921569%);fill-opacity:1;" d="M 52.308594 66.785156 L 52.308594 72.941406 C 52.308594 76.332031 49.546875 79.09375 46.152344 79.09375 L 52.308594 79.09375 C 55.699219 79.09375 58.460938 76.332031 58.460938 72.941406 L 58.460938 60.632812 C 58.460938 64.023438 55.699219 66.785156 52.308594 66.785156 Z M 52.308594 66.785156 "/>
<path style=" stroke:none;fill-rule:nonzero;fill:rgb(58.823529%,86.27451%,98.039216%);fill-opacity:1;" d="M 13.339844 79.09375 C 9.945312 79.09375 7.1875 76.332031 7.1875 72.941406 C 7.1875 69.546875 9.945312 66.785156 13.339844 66.785156 L 7.1875 66.785156 C 3.792969 66.785156 1.03125 69.546875 1.03125 72.941406 C 1.03125 76.332031 3.792969 79.09375 7.1875 79.09375 Z M 13.339844 79.09375 "/>
<path style=" stroke:none;fill-rule:nonzero;fill:rgb(25.098039%,16.078431%,26.27451%);fill-opacity:1;" d="M 52.308594 80.105469 L 7.207031 80.105469 C 3.246094 80.105469 0.0195312 76.882812 0.0195312 72.917969 C 0.0195312 68.957031 3.246094 65.734375 7.207031 65.734375 L 52.308594 65.734375 C 55.132812 65.734375 57.429688 63.433594 57.429688 60.613281 C 57.429688 60.042969 57.890625 59.578125 58.460938 59.578125 C 59.03125 59.578125 59.496094 60.042969 59.496094 60.613281 L 59.496094 72.917969 C 59.472656 76.882812 56.269531 80.105469 52.308594 80.105469 Z M 7.1875 67.796875 C 4.363281 67.796875 2.066406 70.09375 2.066406 72.917969 C 2.066406 75.742188 4.363281 78.0625 7.1875 78.0625 L 52.285156 78.0625 C 55.109375 78.0625 57.40625 75.765625 57.40625 72.941406 L 57.40625 65.648438 C 56.101562 66.976562 54.289062 67.796875 52.285156 67.796875 Z M 7.1875 67.796875 "/>
<path style=" stroke:none;fill-rule:nonzero;fill:rgb(100%,100%,100%);fill-opacity:1;" d="M 52.308594 66.785156 C 55.699219 66.785156 58.460938 64.023438 58.460938 60.632812 L 58.460938 7.3125 C 58.460938 3.921875 55.699219 1.160156 52.308594 1.160156 L 7.207031 1.160156 C 3.816406 1.160156 1.054688 3.921875 1.054688 7.3125 L 1.054688 72.917969 C 1.054688 69.527344 3.816406 66.765625 7.207031 66.765625 Z M 52.308594 66.785156 "/>
<path style=" stroke:none;fill-rule:nonzero;fill:rgb(90.196078%,90.588235%,90.980392%);fill-opacity:1;" d="M 52.308594 1.160156 L 46.152344 1.160156 C 49.546875 1.160156 52.308594 3.921875 52.308594 7.3125 L 52.308594 60.632812 C 52.308594 64.023438 49.546875 66.785156 46.152344 66.785156 L 52.308594 66.785156 C 55.699219 66.785156 58.460938 64.023438 58.460938 60.632812 L 58.460938 7.3125 C 58.460938 3.921875 55.699219 1.160156 52.308594 1.160156 Z M 52.308594 1.160156 "/>
<path style=" stroke:none;fill-rule:nonzero;fill:rgb(90.196078%,90.588235%,90.980392%);fill-opacity:1;" d="M 7.1875 7.3125 C 7.1875 3.921875 9.945312 1.160156 13.339844 1.160156 L 7.1875 1.160156 C 3.792969 1.160156 1.03125 3.921875 1.03125 7.3125 L 1.03125 72.917969 C 1.03125 69.527344 3.792969 66.765625 7.1875 66.765625 Z M 7.1875 7.3125 "/>
<path style=" stroke:none;fill-rule:nonzero;fill:rgb(25.098039%,16.078431%,26.27451%);fill-opacity:1;" d="M 1.03125 73.953125 C 0.464844 73.953125 0 73.488281 0 72.917969 L 0 7.3125 C 0 3.351562 3.226562 0.125 7.1875 0.125 L 52.285156 0.125 C 56.25 0.125 59.472656 3.351562 59.472656 7.3125 L 59.472656 60.632812 C 59.472656 64.59375 56.25 67.820312 52.285156 67.820312 L 7.1875 67.820312 C 4.363281 67.820312 2.066406 70.117188 2.066406 72.941406 C 2.066406 73.507812 1.601562 73.953125 1.03125 73.953125 Z M 7.1875 2.191406 C 4.363281 2.191406 2.066406 4.488281 2.066406 7.3125 L 2.066406 67.902344 C 3.371094 66.574219 5.183594 65.753906 7.1875 65.753906 L 52.285156 65.753906 C 55.109375 65.753906 57.40625 63.457031 57.40625 60.632812 L 57.40625 7.3125 C 57.40625 4.488281 55.109375 2.191406 52.285156 2.191406 Z M 7.1875 2.191406 "/>
<path style=" stroke:none;fill-rule:nonzero;fill:rgb(25.098039%,16.078431%,26.27451%);fill-opacity:1;" d="M 7.1875 9.882812 C 6.914062 9.882812 6.679688 9.652344 6.679688 9.378906 L 6.679688 1.160156 C 6.679688 0.886719 6.914062 0.652344 7.1875 0.652344 C 7.460938 0.652344 7.691406 0.886719 7.691406 1.160156 L 7.691406 9.359375 C 7.714844 9.652344 7.480469 9.882812 7.1875 9.882812 Z M 7.1875 9.882812 "/>
<path style=" stroke:none;fill-rule:nonzero;fill:rgb(25.098039%,16.078431%,26.27451%);fill-opacity:1;" d="M 7.1875 67.292969 C 6.914062 67.292969 6.679688 67.058594 6.679688 66.785156 L 6.679688 13.46875 C 6.679688 13.191406 6.914062 12.960938 7.1875 12.960938 C 7.460938 12.960938 7.691406 13.191406 7.691406 13.46875 L 7.691406 66.785156 C 7.714844 67.058594 7.480469 67.292969 7.1875 67.292969 Z M 7.1875 67.292969 "/>
<path style=" stroke:none;fill-rule:nonzero;fill:rgb(90.196078%,90.588235%,90.980392%);fill-opacity:1;" d="M 41.769531 17.578125 L 23.878906 17.578125 C 19.769531 17.578125 16.417969 20.90625 16.417969 25.035156 C 16.417969 29.144531 19.746094 32.496094 23.878906 32.496094 C 26.933594 32.496094 29.566406 30.664062 30.707031 28.03125 L 34.941406 28.03125 C 36.101562 30.664062 38.714844 32.496094 41.769531 32.496094 C 45.878906 32.496094 49.230469 29.167969 49.230469 25.035156 C 49.230469 20.90625 45.878906 17.578125 41.769531 17.578125 Z M 41.769531 17.578125 "/>
<path style=" stroke:none;fill-rule:nonzero;fill:rgb(100%,100%,100%);fill-opacity:1;" d="M 23.878906 19.621094 L 41.769531 19.621094 C 45.542969 19.621094 48.660156 22.425781 49.144531 26.046875 C 49.1875 25.710938 49.210938 25.375 49.210938 25.015625 C 49.210938 20.90625 45.878906 17.554688 41.75 17.554688 L 23.855469 17.554688 C 19.746094 17.554688 16.394531 20.886719 16.394531 25.015625 C 16.394531 25.375 16.417969 25.710938 16.460938 26.046875 C 16.988281 22.425781 20.105469 19.621094 23.878906 19.621094 Z M 23.878906 19.621094 "/>
<path style=" stroke:none;fill-rule:nonzero;fill:rgb(25.098039%,16.078431%,26.27451%);fill-opacity:1;" d="M 41.769531 33.507812 C 38.628906 33.507812 35.765625 31.78125 34.289062 29.042969 L 31.339844 29.042969 C 29.863281 31.78125 26.996094 33.507812 23.855469 33.507812 C 19.179688 33.507812 15.382812 29.695312 15.382812 25.035156 C 15.382812 20.359375 19.199219 16.566406 23.855469 16.566406 L 41.75 16.566406 C 46.429688 16.566406 50.222656 20.378906 50.222656 25.035156 C 50.242188 29.695312 46.449219 33.507812 41.769531 33.507812 Z M 30.707031 26.976562 L 34.941406 26.976562 C 35.34375 26.976562 35.722656 27.207031 35.890625 27.585938 C 36.921875 29.925781 39.21875 31.441406 41.792969 31.441406 C 45.332031 31.441406 48.21875 28.554688 48.21875 25.015625 C 48.21875 21.476562 45.332031 18.585938 41.792969 18.585938 L 23.898438 18.585938 C 20.359375 18.585938 17.46875 21.476562 17.46875 25.015625 C 17.46875 28.554688 20.359375 31.441406 23.898438 31.441406 C 26.449219 31.441406 28.765625 29.925781 29.800781 27.585938 C 29.925781 27.226562 30.304688 26.976562 30.707031 26.976562 Z M 30.707031 26.976562 "/>
<path style=" stroke:none;fill-rule:nonzero;fill:rgb(25.098039%,16.078431%,26.27451%);fill-opacity:1;" d="M 42.804688 22.78125 C 42.804688 23.351562 42.339844 23.8125 41.769531 23.8125 C 41.199219 23.8125 40.738281 23.351562 40.738281 22.78125 C 40.738281 22.210938 41.199219 21.75 41.769531 21.75 C 42.339844 21.75 42.804688 22.210938 42.804688 22.78125 Z M 42.804688 22.78125 "/>
<path style=" stroke:none;fill-rule:nonzero;fill:rgb(25.098039%,16.078431%,26.27451%);fill-opacity:1;" d="M 42.804688 27.269531 C 42.804688 27.839844 42.339844 28.304688 41.769531 28.304688 C 41.199219 28.304688 40.738281 27.839844 40.738281 27.269531 C 40.738281 26.699219 41.199219 26.238281 41.769531 26.238281 C 42.339844 26.238281 42.804688 26.699219 42.804688 27.269531 Z M 42.804688 27.269531 "/>
<path style=" stroke:none;fill-rule:nonzero;fill:rgb(25.098039%,16.078431%,26.27451%);fill-opacity:1;" d="M 45.035156 25.035156 C 45.035156 25.605469 44.574219 26.070312 44.003906 26.070312 C 43.433594 26.070312 42.972656 25.605469 42.972656 25.035156 C 42.972656 24.464844 43.433594 24.003906 44.003906 24.003906 C 44.574219 24.003906 45.035156 24.464844 45.035156 25.035156 Z M 45.035156 25.035156 "/>
<path style=" stroke:none;fill-rule:nonzero;fill:rgb(25.098039%,16.078431%,26.27451%);fill-opacity:1;" d="M 40.570312 25.035156 C 40.570312 25.605469 40.105469 26.070312 39.535156 26.070312 C 38.964844 26.070312 38.503906 25.605469 38.503906 25.035156 C 38.503906 24.464844 38.964844 24.003906 39.535156 24.003906 C 40.105469 24.003906 40.570312 24.464844 40.570312 25.035156 Z M 40.570312 25.035156 "/>
<path style=" stroke:none;fill-rule:nonzero;fill:rgb(25.098039%,16.078431%,26.27451%);fill-opacity:1;" d="M 22.84375 22.042969 L 24.890625 22.042969 L 24.890625 28.007812 L 22.84375 28.007812 Z M 22.84375 22.042969 "/>
<path style=" stroke:none;fill-rule:nonzero;fill:rgb(25.098039%,16.078431%,26.27451%);fill-opacity:1;" d="M 20.886719 24.003906 L 26.847656 24.003906 L 26.847656 26.046875 L 20.886719 26.046875 Z M 20.886719 24.003906 "/>
<path style=" stroke:none;fill-rule:nonzero;fill:rgb(25.098039%,16.078431%,26.27451%);fill-opacity:1;" d="M 33.574219 24.550781 L 32.074219 24.550781 C 31.507812 24.550781 31.042969 24.089844 31.042969 23.519531 C 31.042969 22.949219 31.507812 22.488281 32.074219 22.488281 L 33.574219 22.488281 C 34.140625 22.488281 34.605469 22.949219 34.605469 23.519531 C 34.605469 24.109375 34.140625 24.550781 33.574219 24.550781 Z M 33.574219 24.550781 "/>
<path style=" stroke:none;fill-rule:nonzero;fill:rgb(100%,100%,100%);fill-opacity:1;" d="M 22.570312 46.28125 L 43.078125 46.28125 L 43.078125 50.390625 L 22.570312 50.390625 Z M 22.570312 46.28125 "/>
<path style=" stroke:none;fill-rule:nonzero;fill:rgb(90.196078%,90.588235%,90.980392%);fill-opacity:1;" d="M 22.570312 48.324219 L 43.078125 48.324219 L 43.078125 50.367188 L 22.570312 50.367188 Z M 22.570312 48.324219 "/>
<path style=" stroke:none;fill-rule:nonzero;fill:rgb(25.098039%,16.078431%,26.27451%);fill-opacity:1;" d="M 43.078125 51.402344 L 22.570312 51.402344 C 22 51.402344 21.539062 50.9375 21.539062 50.367188 L 21.539062 46.257812 C 21.539062 45.691406 22 45.226562 22.570312 45.226562 L 43.078125 45.226562 C 43.644531 45.226562 44.109375 45.691406 44.109375 46.257812 L 44.109375 50.367188 C 44.109375 50.9375 43.644531 51.402344 43.078125 51.402344 Z M 23.605469 49.355469 L 42.066406 49.355469 L 42.066406 47.3125 L 23.605469 47.3125 Z M 23.605469 49.355469 "/>
</g>
</svg>
