<?xml version="1.0" encoding="UTF-8"?>
<svg xmlns="http://www.w3.org/2000/svg" xmlns:xlink="http://www.w3.org/1999/xlink" width="130px" height="130px" viewBox="0 0 130 130" version="1.1">
<g id="surface1">
<path style=" stroke:none;fill-rule:nonzero;fill:rgb(2.745098%,28.235294%,36.862745%);fill-opacity:1;" d="M 84.042969 3.8125 L 84.042969 110.960938 C 84.042969 113.089844 82.367188 114.769531 80.234375 114.769531 L 49.765625 114.769531 C 47.632812 114.769531 45.957031 113.089844 45.957031 110.960938 L 0.253906 3.8125 C 0.253906 1.675781 1.929688 0.00390625 4.0625 0.00390625 L 80.234375 0.00390625 C 82.367188 0.00390625 84.042969 1.675781 84.042969 3.8125 Z M 84.042969 3.8125 "/>
<path style=" stroke:none;fill-rule:nonzero;fill:rgb(1.176471%,13.72549%,18.039216%);fill-opacity:1;" d="M 84.042969 3.8125 L 84.042969 110.960938 C 84.042969 113.089844 82.367188 114.769531 80.234375 114.769531 L 49.765625 114.769531 C 47.632812 114.769531 45.957031 113.089844 45.957031 110.960938 L 34.53125 84.300781 L 34.53125 0.00390625 L 80.234375 0.00390625 C 82.367188 0.00390625 84.042969 1.675781 84.042969 3.8125 Z M 84.042969 3.8125 "/>
<path style=" stroke:none;fill-rule:nonzero;fill:rgb(100%,53.333333%,34.901961%);fill-opacity:1;" d="M 51.441406 23.234375 L 5.738281 0.382812 C 4.597656 -0.152344 3.148438 -0.152344 2.082031 0.535156 C 0.9375 1.296875 0.253906 2.515625 0.253906 3.8125 L 0.253906 110.960938 C 0.253906 112.632812 1.320312 114.082031 2.84375 114.539062 L 34.53125 125.128906 L 48.546875 129.773438 C 49.667969 130.222656 51.105469 129.96875 51.972656 129.316406 C 52.964844 128.554688 53.574219 127.414062 53.574219 126.195312 L 53.574219 26.664062 C 53.574219 25.214844 52.734375 23.917969 51.441406 23.234375 Z M 51.441406 23.234375 "/>
<path style=" stroke:none;fill-rule:nonzero;fill:rgb(100%,22.352941%,22.352941%);fill-opacity:1;" d="M 53.574219 26.664062 L 53.574219 126.195312 C 53.574219 127.414062 52.964844 128.554688 51.972656 129.316406 C 51.113281 129.960938 49.679688 130.226562 48.546875 129.773438 L 34.53125 125.128906 L 34.53125 14.777344 L 51.441406 23.234375 C 52.734375 23.917969 53.574219 25.214844 53.574219 26.664062 Z M 53.574219 26.664062 "/>
<path style=" stroke:none;fill-rule:nonzero;fill:rgb(100%,22.352941%,22.352941%);fill-opacity:1;" d="M 93.671875 83.847656 C 92.433594 83.1875 91.660156 81.898438 91.660156 80.492188 L 91.660156 76.683594 L 65 76.683594 C 62.894531 76.683594 61.191406 74.976562 61.191406 72.875 L 61.191406 57.640625 C 61.191406 55.53125 62.894531 53.832031 65 53.832031 L 91.660156 53.832031 L 91.660156 50.023438 C 91.660156 48.613281 92.433594 47.324219 93.671875 46.664062 C 94.90625 46.003906 96.414062 46.078125 97.582031 46.851562 L 120.433594 62.085938 C 121.492188 62.792969 122.128906 63.984375 122.128906 65.257812 C 122.128906 66.527344 121.492188 67.71875 120.433594 68.421875 L 97.582031 83.65625 C 96.398438 84.445312 94.894531 84.503906 93.671875 83.847656 Z M 93.671875 83.847656 "/>
<path style=" stroke:none;fill-rule:nonzero;fill:rgb(100%,96.078431%,96.078431%);fill-opacity:1;" d="M 38.339844 57.640625 L 38.339844 72.875 C 38.339844 75.003906 36.664062 76.683594 34.53125 76.683594 C 32.398438 76.683594 30.722656 75.003906 30.722656 72.875 L 30.722656 57.640625 C 30.722656 55.503906 32.398438 53.832031 34.53125 53.832031 C 36.664062 53.832031 38.339844 55.503906 38.339844 57.640625 Z M 38.339844 57.640625 "/>
<path style=" stroke:none;fill-rule:nonzero;fill:rgb(93.72549%,88.627451%,86.666667%);fill-opacity:1;" d="M 38.339844 57.640625 L 38.339844 72.875 C 38.339844 75.003906 36.664062 76.683594 34.53125 76.683594 L 34.53125 53.832031 C 36.664062 53.832031 38.339844 55.503906 38.339844 57.640625 Z M 38.339844 57.640625 "/>
</g>
</svg>
