<?xml version="1.0" encoding="UTF-8"?>
<svg xmlns="http://www.w3.org/2000/svg" xmlns:xlink="http://www.w3.org/1999/xlink" width="80px" height="80px" viewBox="0 0 80 80" version="1.1">
<g id="surface1">
<path style=" stroke:none;fill-rule:nonzero;fill:rgb(100%,50.196078%,52.941176%);fill-opacity:1;" d="M 8.6875 60.039062 L 18.707031 60.039062 L 18.707031 19.960938 L 8.6875 19.960938 C 4.535156 19.960938 1.171875 23.324219 1.171875 27.476562 L 1.171875 52.523438 C 1.171875 56.675781 4.535156 60.039062 8.6875 60.039062 Z M 8.6875 60.039062 "/>
<path style=" stroke:none;fill-rule:nonzero;fill:rgb(90.196078%,39.215686%,43.137255%);fill-opacity:1;" d="M 6.183594 52.523438 L 6.183594 27.476562 C 6.183594 23.324219 9.546875 19.960938 13.695312 19.960938 L 8.6875 19.960938 C 4.535156 19.960938 1.171875 23.324219 1.171875 27.476562 L 1.171875 52.523438 C 1.171875 56.675781 4.535156 60.039062 8.6875 60.039062 L 13.695312 60.039062 C 9.546875 60.039062 6.183594 56.675781 6.183594 52.523438 Z M 6.183594 52.523438 "/>
<path style=" stroke:none;fill-rule:nonzero;fill:rgb(62.745098%,90.196078%,100%);fill-opacity:1;" d="M 71.3125 19.960938 L 61.292969 19.960938 L 61.292969 60.039062 L 71.3125 60.039062 C 75.464844 60.039062 78.828125 56.675781 78.828125 52.523438 L 78.828125 27.476562 C 78.828125 23.324219 75.464844 19.960938 71.3125 19.960938 Z M 71.3125 19.960938 "/>
<path style=" stroke:none;fill-rule:nonzero;fill:rgb(36.470588%,32.54902%,37.647059%);fill-opacity:1;" d="M 18.707031 19.960938 L 61.292969 19.960938 L 61.292969 60.039062 L 18.707031 60.039062 Z M 18.707031 19.960938 "/>
<path style=" stroke:none;fill-rule:nonzero;fill:rgb(82.352941%,74.509804%,100%);fill-opacity:1;" d="M 23.71875 24.96875 L 56.28125 24.96875 L 56.28125 55.03125 L 23.71875 55.03125 Z M 23.71875 24.96875 "/>
<path style=" stroke:none;fill-rule:nonzero;fill:rgb(36.470588%,32.54902%,37.647059%);fill-opacity:1;" d="M 13.695312 32.484375 C 13.695312 34.558594 12.015625 36.242188 9.9375 36.242188 C 7.863281 36.242188 6.179688 34.558594 6.179688 32.484375 C 6.179688 30.410156 7.863281 28.726562 9.9375 28.726562 C 12.015625 28.726562 13.695312 30.410156 13.695312 32.484375 Z M 13.695312 32.484375 "/>
<path style=" stroke:none;fill-rule:nonzero;fill:rgb(36.470588%,32.54902%,37.647059%);fill-opacity:1;" d="M 73.820312 47.515625 C 73.820312 49.589844 72.136719 51.273438 70.0625 51.273438 C 67.984375 51.273438 66.304688 49.589844 66.304688 47.515625 C 66.304688 45.441406 67.984375 43.757812 70.0625 43.757812 C 72.136719 43.757812 73.820312 45.441406 73.820312 47.515625 Z M 73.820312 47.515625 "/>
<path style=" stroke:none;fill-rule:nonzero;fill:rgb(90.196078%,80.392157%,100%);fill-opacity:1;" d="M 51.273438 40 C 51.273438 46.226562 46.226562 51.273438 40 51.273438 C 33.773438 51.273438 28.726562 46.226562 28.726562 40 C 28.726562 33.773438 33.773438 28.726562 40 28.726562 C 46.226562 28.726562 51.273438 33.773438 51.273438 40 Z M 51.273438 40 "/>
<path style=" stroke:none;fill-rule:nonzero;fill:rgb(0%,0%,0%);fill-opacity:1;" d="M 71.3125 18.789062 L 8.6875 18.789062 C 3.898438 18.789062 0 22.683594 0 27.476562 L 0 52.523438 C 0 57.316406 3.898438 61.210938 8.6875 61.210938 L 71.3125 61.210938 C 76.101562 61.210938 80 57.316406 80 52.523438 L 80 27.476562 C 80 22.683594 76.101562 18.789062 71.3125 18.789062 Z M 77.65625 52.523438 C 77.65625 56.023438 74.8125 58.867188 71.3125 58.867188 L 62.464844 58.867188 L 62.464844 27.476562 C 62.464844 26.828125 61.941406 26.304688 61.292969 26.304688 C 60.644531 26.304688 60.121094 26.828125 60.121094 27.476562 L 60.121094 58.867188 L 19.878906 58.867188 L 19.878906 57.535156 C 19.878906 56.886719 19.355469 56.363281 18.707031 56.363281 C 18.058594 56.363281 17.535156 56.886719 17.535156 57.535156 L 17.535156 58.867188 L 8.6875 58.867188 C 5.1875 58.867188 2.34375 56.023438 2.34375 52.523438 L 2.34375 27.476562 C 2.34375 23.976562 5.1875 21.132812 8.6875 21.132812 L 17.535156 21.132812 L 17.535156 52.523438 C 17.535156 53.171875 18.058594 53.695312 18.707031 53.695312 C 19.355469 53.695312 19.878906 53.171875 19.878906 52.523438 L 19.878906 21.132812 L 60.121094 21.132812 L 60.121094 22.464844 C 60.121094 23.113281 60.644531 23.636719 61.292969 23.636719 C 61.941406 23.636719 62.464844 23.113281 62.464844 22.464844 L 62.464844 21.132812 L 71.3125 21.132812 C 74.808594 21.132812 77.65625 23.976562 77.65625 27.476562 Z M 77.65625 52.523438 "/>
<path style=" stroke:none;fill-rule:nonzero;fill:rgb(0%,0%,0%);fill-opacity:1;" d="M 56.28125 23.796875 L 23.71875 23.796875 C 23.070312 23.796875 22.546875 24.324219 22.546875 24.96875 L 22.546875 55.03125 C 22.546875 55.675781 23.070312 56.203125 23.71875 56.203125 L 56.28125 56.203125 C 56.929688 56.203125 57.453125 55.675781 57.453125 55.03125 L 57.453125 24.96875 C 57.453125 24.324219 56.929688 23.796875 56.28125 23.796875 Z M 55.109375 53.859375 L 24.890625 53.859375 L 24.890625 26.140625 L 55.109375 26.140625 Z M 55.109375 53.859375 "/>
<path style=" stroke:none;fill-rule:nonzero;fill:rgb(0%,0%,0%);fill-opacity:1;" d="M 9.941406 27.554688 C 7.222656 27.554688 5.011719 29.765625 5.011719 32.484375 C 5.011719 35.203125 7.222656 37.414062 9.941406 37.414062 C 12.65625 37.414062 14.867188 35.203125 14.867188 32.484375 C 14.867188 29.765625 12.65625 27.554688 9.941406 27.554688 Z M 9.941406 35.070312 C 8.515625 35.070312 7.355469 33.910156 7.355469 32.484375 C 7.355469 31.058594 8.515625 29.898438 9.941406 29.898438 C 11.367188 29.898438 12.523438 31.058594 12.523438 32.484375 C 12.523438 33.910156 11.367188 35.070312 9.941406 35.070312 Z M 9.941406 35.070312 "/>
<path style=" stroke:none;fill-rule:nonzero;fill:rgb(0%,0%,0%);fill-opacity:1;" d="M 7.433594 45.089844 L 6.183594 45.089844 C 5.535156 45.089844 5.011719 45.617188 5.011719 46.261719 C 5.011719 46.910156 5.535156 47.433594 6.183594 47.433594 L 7.433594 47.433594 C 8.082031 47.433594 8.605469 46.910156 8.605469 46.261719 C 8.605469 45.617188 8.082031 45.089844 7.433594 45.089844 Z M 7.433594 45.089844 "/>
<path style=" stroke:none;fill-rule:nonzero;fill:rgb(0%,0%,0%);fill-opacity:1;" d="M 13.695312 45.089844 L 12.445312 45.089844 C 11.796875 45.089844 11.273438 45.617188 11.273438 46.261719 C 11.273438 46.910156 11.796875 47.433594 12.445312 47.433594 L 13.695312 47.433594 C 14.34375 47.433594 14.867188 46.910156 14.867188 46.261719 C 14.867188 45.617188 14.34375 45.089844 13.695312 45.089844 Z M 13.695312 45.089844 "/>
<path style=" stroke:none;fill-rule:nonzero;fill:rgb(0%,0%,0%);fill-opacity:1;" d="M 9.941406 41.332031 C 9.292969 41.332031 8.769531 41.859375 8.769531 42.503906 L 8.769531 43.757812 C 8.769531 44.40625 9.292969 44.929688 9.941406 44.929688 C 10.585938 44.929688 11.113281 44.40625 11.113281 43.757812 L 11.113281 42.503906 C 11.113281 41.859375 10.585938 41.332031 9.941406 41.332031 Z M 9.941406 41.332031 "/>
<path style=" stroke:none;fill-rule:nonzero;fill:rgb(0%,0%,0%);fill-opacity:1;" d="M 9.941406 47.59375 C 9.292969 47.59375 8.769531 48.121094 8.769531 48.765625 L 8.769531 50.019531 C 8.769531 50.667969 9.292969 51.191406 9.941406 51.191406 C 10.585938 51.191406 11.113281 50.667969 11.113281 50.019531 L 11.113281 48.765625 C 11.113281 48.121094 10.585938 47.59375 9.941406 47.59375 Z M 9.941406 47.59375 "/>
<path style=" stroke:none;fill-rule:nonzero;fill:rgb(0%,0%,0%);fill-opacity:1;" d="M 70.058594 42.585938 C 67.34375 42.585938 65.132812 44.796875 65.132812 47.515625 C 65.132812 50.234375 67.34375 52.445312 70.058594 52.445312 C 72.777344 52.445312 74.988281 50.234375 74.988281 47.515625 C 74.988281 44.796875 72.777344 42.585938 70.058594 42.585938 Z M 70.058594 50.101562 C 68.632812 50.101562 67.476562 48.941406 67.476562 47.515625 C 67.476562 46.089844 68.632812 44.929688 70.058594 44.929688 C 71.484375 44.929688 72.644531 46.089844 72.644531 47.515625 C 72.644531 48.941406 71.484375 50.101562 70.058594 50.101562 Z M 70.058594 50.101562 "/>
<path style=" stroke:none;fill-rule:nonzero;fill:rgb(0%,0%,0%);fill-opacity:1;" d="M 73.816406 32.566406 L 72.566406 32.566406 C 71.917969 32.566406 71.394531 33.089844 71.394531 33.738281 C 71.394531 34.382812 71.917969 34.910156 72.566406 34.910156 L 73.816406 34.910156 C 74.464844 34.910156 74.988281 34.382812 74.988281 33.738281 C 74.988281 33.089844 74.464844 32.566406 73.816406 32.566406 Z M 73.816406 32.566406 "/>
<path style=" stroke:none;fill-rule:nonzero;fill:rgb(0%,0%,0%);fill-opacity:1;" d="M 66.304688 34.910156 L 67.554688 34.910156 C 68.203125 34.910156 68.726562 34.382812 68.726562 33.738281 C 68.726562 33.089844 68.203125 32.566406 67.554688 32.566406 L 66.304688 32.566406 C 65.65625 32.566406 65.132812 33.089844 65.132812 33.738281 C 65.132812 34.382812 65.65625 34.910156 66.304688 34.910156 Z M 66.304688 34.910156 "/>
<path style=" stroke:none;fill-rule:nonzero;fill:rgb(0%,0%,0%);fill-opacity:1;" d="M 70.058594 38.667969 C 70.707031 38.667969 71.230469 38.140625 71.230469 37.496094 L 71.230469 36.242188 C 71.230469 35.59375 70.707031 35.070312 70.058594 35.070312 C 69.414062 35.070312 68.886719 35.59375 68.886719 36.242188 L 68.886719 37.496094 C 68.886719 38.140625 69.414062 38.667969 70.058594 38.667969 Z M 70.058594 38.667969 "/>
<path style=" stroke:none;fill-rule:nonzero;fill:rgb(0%,0%,0%);fill-opacity:1;" d="M 70.058594 32.402344 C 70.707031 32.402344 71.230469 31.878906 71.230469 31.230469 L 71.230469 29.980469 C 71.230469 29.332031 70.707031 28.808594 70.058594 28.808594 C 69.414062 28.808594 68.886719 29.332031 68.886719 29.980469 L 68.886719 31.230469 C 68.886719 31.878906 69.414062 32.402344 70.058594 32.402344 Z M 70.058594 32.402344 "/>
</g>
</svg>
