<?xml version="1.0" encoding="UTF-8"?>
<svg xmlns="http://www.w3.org/2000/svg" xmlns:xlink="http://www.w3.org/1999/xlink" width="80px" height="80px" viewBox="0 0 80 80" version="1.1">
<g id="surface1">
<path style=" stroke:none;fill-rule:nonzero;fill:rgb(0%,0%,0%);fill-opacity:1;" d="M 6.402344 25.523438 L 11.59375 25.523438 L 11.59375 79.285156 L 1.035156 79.269531 L 6.402344 74.5 Z M 6.402344 23.660156 L 11.59375 23.667969 L 11.59375 0 L 6.402344 0 Z M 30.703125 72.1875 C 30.5625 73.476562 30.496094 74.726562 30.511719 75.90625 C 30.527344 76.945312 30.660156 78.097656 31.285156 79.277344 L 13.179688 79.285156 L 13.179688 25.523438 L 17.851562 25.902344 L 49.152344 32.339844 L 49.152344 51.414062 C 49.011719 51.511719 48.867188 51.613281 48.738281 51.730469 L 46.535156 51.730469 C 46.230469 51.398438 45.839844 51.132812 45.390625 50.964844 C 43.160156 50.117188 40.824219 50.152344 38.621094 51.050781 C 38.269531 51.195312 37.949219 51.378906 37.679688 51.589844 C 37.441406 51.773438 37.234375 51.988281 37.066406 52.226562 C 36.855469 52.398438 36.632812 52.621094 36.4375 52.90625 C 36.105469 53.390625 35.785156 53.878906 35.460938 54.367188 L 35.082031 54.945312 C 34.277344 56.160156 33.835938 57.441406 33.542969 58.421875 C 32.929688 60.449219 32.382812 62.664062 31.867188 65.191406 C 31.445312 67.25 30.976562 69.691406 30.703125 72.1875 Z M 15.714844 66.960938 C 15.714844 66.992188 15.730469 67.003906 15.761719 67.011719 C 15.941406 67.058594 16.121094 67.113281 16.296875 67.160156 C 16.351562 67.175781 16.40625 67.191406 16.457031 67.207031 C 16.605469 67.261719 16.746094 67.386719 16.742188 67.554688 C 16.738281 68.042969 16.742188 68.53125 16.742188 69.023438 C 16.742188 69.074219 16.742188 69.128906 16.75 69.183594 C 16.769531 69.351562 16.851562 69.503906 17.027344 69.636719 C 17.148438 69.726562 17.28125 69.773438 17.417969 69.804688 C 17.707031 69.867188 17.925781 69.730469 17.925781 69.488281 C 17.925781 68.746094 17.925781 68.003906 17.925781 67.265625 C 17.925781 67.25 17.925781 67.234375 17.925781 67.214844 C 17.863281 67.199219 17.808594 67.183594 17.753906 67.167969 C 17.710938 67.152344 17.699219 67.164062 17.699219 67.199219 C 17.699219 67.59375 17.699219 67.992188 17.699219 68.390625 C 17.699219 68.667969 17.699219 68.945312 17.699219 69.222656 C 17.699219 69.359375 17.621094 69.425781 17.464844 69.410156 C 17.398438 69.402344 17.324219 69.382812 17.257812 69.359375 C 17.066406 69.285156 16.980469 69.171875 16.980469 69.011719 C 16.980469 68.480469 16.976562 67.949219 16.984375 67.421875 C 16.988281 67.160156 16.75 66.910156 16.464844 66.816406 C 16.230469 66.738281 15.992188 66.679688 15.757812 66.609375 C 15.726562 66.601562 15.714844 66.609375 15.714844 66.632812 C 15.71875 66.746094 15.71875 66.851562 15.714844 66.960938 Z M 15.714844 69.957031 C 15.71875 70.070312 15.742188 70.183594 15.816406 70.296875 C 15.929688 70.472656 16.097656 70.578125 16.296875 70.632812 C 16.636719 70.730469 16.972656 70.824219 17.3125 70.917969 C 17.355469 70.933594 17.398438 70.945312 17.441406 70.964844 C 17.570312 71.011719 17.664062 71.105469 17.6875 71.207031 C 17.699219 71.242188 17.699219 71.277344 17.699219 71.308594 C 17.699219 71.648438 17.699219 71.988281 17.699219 72.328125 C 17.699219 72.335938 17.695312 72.34375 17.703125 72.351562 C 17.710938 72.367188 17.71875 72.382812 17.730469 72.386719 C 17.792969 72.40625 17.855469 72.421875 17.925781 72.441406 C 17.925781 72.425781 17.925781 72.421875 17.925781 72.410156 C 17.925781 71.984375 17.929688 71.558594 17.921875 71.132812 C 17.921875 70.988281 17.847656 70.847656 17.707031 70.722656 C 17.601562 70.628906 17.480469 70.566406 17.351562 70.53125 C 17 70.433594 16.652344 70.339844 16.304688 70.238281 C 16.097656 70.179688 15.949219 70.054688 15.953125 69.847656 C 15.960938 69.496094 15.957031 69.140625 15.957031 68.789062 C 15.957031 68.777344 15.953125 68.769531 15.957031 68.761719 C 15.957031 68.738281 15.945312 68.726562 15.917969 68.71875 C 15.867188 68.703125 15.8125 68.691406 15.761719 68.675781 C 15.726562 68.660156 15.714844 68.671875 15.714844 68.699219 C 15.714844 69.121094 15.714844 69.539062 15.714844 69.957031 Z M 17.925781 74.101562 C 17.933594 74.027344 17.898438 73.957031 17.851562 73.882812 C 17.714844 73.660156 17.582031 73.4375 17.445312 73.214844 C 17.042969 72.550781 16.636719 71.886719 16.234375 71.226562 C 16.210938 71.191406 16.1875 71.15625 16.15625 71.125 C 16.078125 71.042969 15.988281 71.042969 15.964844 71.125 C 15.957031 71.160156 15.953125 71.195312 15.953125 71.230469 C 15.953125 71.90625 15.953125 72.582031 15.953125 73.257812 C 15.953125 73.289062 15.945312 73.296875 15.90625 73.285156 C 15.847656 73.265625 15.785156 73.25 15.71875 73.230469 C 15.71875 73.367188 15.71875 73.496094 15.71875 73.632812 C 15.78125 73.648438 15.839844 73.667969 15.902344 73.679688 C 15.941406 73.691406 15.953125 73.703125 15.953125 73.742188 C 15.949219 73.84375 15.953125 73.949219 15.953125 74.058594 C 15.953125 74.070312 15.964844 74.09375 15.972656 74.097656 C 16.042969 74.121094 16.113281 74.136719 16.1875 74.160156 C 16.1875 74.140625 16.191406 74.128906 16.191406 74.113281 C 16.191406 74.011719 16.191406 73.910156 16.1875 73.808594 C 16.1875 73.773438 16.199219 73.761719 16.246094 73.777344 C 16.722656 73.910156 17.203125 74.042969 17.679688 74.175781 C 17.726562 74.1875 17.773438 74.195312 17.820312 74.195312 C 17.894531 74.199219 17.921875 74.164062 17.925781 74.101562 Z M 16.238281 71.625 C 16.230469 71.613281 16.222656 71.601562 16.210938 71.585938 C 16.207031 71.585938 16.203125 71.585938 16.195312 71.585938 C 16.195312 72.179688 16.195312 72.769531 16.195312 73.363281 C 16.210938 73.367188 16.21875 73.371094 16.226562 73.375 C 16.636719 73.488281 17.050781 73.601562 17.460938 73.71875 C 17.511719 73.730469 17.519531 73.722656 17.488281 73.675781 C 17.074219 72.992188 16.65625 72.308594 16.238281 71.625 Z M 49.152344 30.832031 L 49.152344 10.199219 L 18.554688 0 L 13.179688 0 L 13.179688 23.667969 L 18.027344 24.089844 Z M 43.027344 61.75 L 42.035156 60.664062 C 41.941406 60.5625 41.792969 60.5625 41.699219 60.664062 L 40.789062 61.660156 C 40.613281 61.8125 40.496094 62.0625 40.496094 62.289062 L 40.496094 64.191406 C 40.496094 64.550781 40.785156 64.839844 41.144531 64.839844 L 42.585938 64.839844 C 42.941406 64.839844 43.234375 64.550781 43.234375 64.191406 L 43.234375 62.289062 C 43.234375 62.101562 43.152344 61.898438 43.027344 61.746094 Z M 41.367188 59.929688 L 40.28125 58.9375 C 40.132812 58.8125 39.929688 58.734375 39.742188 58.734375 L 37.835938 58.734375 C 37.480469 58.734375 37.191406 59.023438 37.191406 59.378906 L 37.191406 60.824219 C 37.191406 61.179688 37.480469 61.46875 37.835938 61.46875 L 39.742188 61.46875 C 39.96875 61.46875 40.21875 61.355469 40.371094 61.179688 L 41.367188 60.265625 C 41.46875 60.171875 41.46875 60.023438 41.367188 59.929688 Z M 51.214844 59.757812 L 61.039062 59.757812 C 61.527344 59.757812 61.921875 59.363281 61.921875 58.875 L 61.921875 53.742188 C 61.921875 53.253906 61.527344 52.859375 61.039062 52.859375 L 51.214844 52.859375 C 50.726562 52.859375 50.332031 53.253906 50.332031 53.742188 L 50.332031 58.875 C 50.332031 59.363281 50.730469 59.757812 51.214844 59.757812 Z M 41.699219 59.746094 C 41.792969 59.847656 41.941406 59.847656 42.035156 59.746094 L 43.027344 58.660156 C 43.152344 58.511719 43.230469 58.304688 43.230469 58.121094 L 43.230469 56.214844 C 43.230469 55.859375 42.941406 55.570312 42.585938 55.570312 L 41.144531 55.570312 C 40.785156 55.570312 40.496094 55.859375 40.496094 56.214844 L 40.496094 58.121094 C 40.496094 58.347656 40.609375 58.597656 40.789062 58.75 Z M 73.753906 58.511719 C 74.585938 58.511719 75.257812 59.1875 75.257812 60.015625 C 75.257812 60.84375 74.585938 61.519531 73.753906 61.519531 C 72.925781 61.519531 72.253906 60.84375 72.253906 60.015625 C 72.253906 59.1875 72.925781 58.511719 73.753906 58.511719 Z M 73.753906 59.015625 C 73.214844 59.015625 72.773438 59.453125 72.773438 59.996094 C 72.773438 60.539062 73.214844 60.980469 73.753906 60.980469 C 74.300781 60.980469 74.742188 60.539062 74.742188 59.996094 C 74.742188 59.453125 74.300781 59.015625 73.753906 59.015625 Z M 69.671875 57.296875 L 71.113281 57.296875 L 70.390625 56.074219 Z M 71.894531 56.777344 C 71.894531 57.609375 71.222656 58.277344 70.394531 58.277344 C 69.5625 58.277344 68.890625 57.605469 68.890625 56.777344 C 68.890625 55.945312 69.5625 55.273438 70.394531 55.273438 C 71.222656 55.273438 71.894531 55.945312 71.894531 56.777344 Z M 71.4375 57.484375 L 70.390625 55.710938 L 69.34375 57.484375 Z M 72.957031 59.996094 C 72.957031 60.4375 73.316406 60.796875 73.753906 60.796875 C 74.195312 60.796875 74.554688 60.4375 74.554688 59.996094 C 74.554688 59.558594 74.195312 59.199219 73.753906 59.199219 C 73.316406 59.199219 72.957031 59.558594 72.957031 59.996094 Z M 71.894531 63.261719 C 71.894531 64.09375 71.222656 64.765625 70.394531 64.765625 C 69.5625 64.765625 68.890625 64.089844 68.890625 63.261719 C 68.890625 62.433594 69.5625 61.757812 70.394531 61.757812 C 71.222656 61.757812 71.894531 62.429688 71.894531 63.261719 Z M 70.601562 63.261719 L 71.308594 62.554688 L 71.136719 62.382812 L 70.429688 63.089844 L 69.726562 62.382812 L 69.554688 62.554688 L 70.261719 63.261719 L 69.554688 63.96875 L 69.726562 64.140625 L 70.429688 63.433594 L 71.136719 64.140625 L 71.308594 63.96875 Z M 78.960938 75.273438 C 78.945312 76.765625 78.613281 77.789062 77.167969 78.984375 C 74.640625 80.933594 71.226562 79.664062 70.507812 78.59375 C 69.785156 77.527344 69.167969 75.871094 68.679688 74.429688 C 68.277344 73.257812 67.878906 72.085938 67.488281 70.910156 C 67.363281 70.535156 67.050781 70.394531 66.734375 70.257812 C 66.695312 70.238281 66.617188 70.277344 66.574219 70.308594 C 64.832031 71.578125 62.625 71.539062 60.929688 70.214844 C 60.84375 70.148438 60.710938 70.101562 60.601562 70.101562 C 60.101562 70.101562 58.808594 70.101562 57.542969 70.105469 L 57.542969 70.109375 C 57.265625 70.109375 56.746094 70.109375 56.121094 70.105469 C 55.496094 70.109375 54.976562 70.109375 54.699219 70.109375 L 54.699219 70.105469 C 53.433594 70.101562 52.140625 70.101562 51.640625 70.101562 C 51.53125 70.101562 51.402344 70.148438 51.3125 70.214844 C 49.617188 71.539062 47.410156 71.578125 45.667969 70.308594 C 45.625 70.277344 45.550781 70.238281 45.511719 70.257812 C 45.195312 70.394531 44.878906 70.535156 44.753906 70.910156 C 44.363281 72.085938 43.964844 73.257812 43.566406 74.429688 C 43.074219 75.871094 42.460938 77.527344 41.738281 78.59375 C 41.015625 79.660156 37.601562 80.933594 35.074219 78.984375 C 33.628906 77.792969 33.300781 76.765625 33.28125 75.273438 C 33.265625 74.140625 33.332031 73 33.453125 71.875 C 33.703125 69.605469 34.121094 67.359375 34.578125 65.121094 C 35.03125 62.921875 35.550781 60.738281 36.195312 58.585938 C 36.488281 57.613281 36.84375 56.664062 37.410156 55.808594 C 37.851562 55.140625 38.285156 54.46875 38.738281 53.804688 C 38.820312 53.6875 38.96875 53.601562 39.105469 53.527344 C 39.207031 53.46875 39.28125 53.429688 39.289062 53.292969 C 39.292969 53.222656 39.355469 53.136719 39.414062 53.089844 C 39.507812 53.015625 39.621094 52.957031 39.734375 52.914062 C 41.332031 52.257812 42.941406 52.230469 44.558594 52.84375 C 44.699219 52.894531 44.777344 52.988281 44.761719 53.132812 C 44.742188 53.355469 44.828125 53.480469 45.054688 53.5 C 45.070312 53.5 45.089844 53.507812 45.105469 53.515625 C 45.484375 53.714844 45.898438 53.78125 46.320312 53.785156 L 49.917969 53.785156 L 49.90625 58.875 C 49.90625 59.597656 50.492188 60.1875 51.214844 60.1875 L 61.039062 60.1875 C 61.765625 60.1875 62.351562 59.597656 62.351562 58.875 L 62.351562 53.785156 L 65.921875 53.785156 C 66.347656 53.78125 66.757812 53.714844 67.140625 53.515625 C 67.152344 53.507812 67.171875 53.5 67.1875 53.5 C 67.414062 53.480469 67.5 53.355469 67.480469 53.132812 C 67.464844 52.992188 67.542969 52.898438 67.683594 52.84375 C 69.300781 52.230469 70.910156 52.257812 72.511719 52.914062 C 72.621094 52.960938 72.734375 53.015625 72.828125 53.089844 C 72.886719 53.136719 72.949219 53.222656 72.953125 53.292969 C 72.960938 53.429688 73.035156 53.46875 73.136719 53.527344 C 73.273438 53.601562 73.421875 53.6875 73.503906 53.804688 C 73.957031 54.46875 74.394531 55.140625 74.832031 55.808594 C 75.398438 56.664062 75.753906 57.613281 76.046875 58.585938 C 76.695312 60.738281 77.214844 62.921875 77.664062 65.121094 C 78.121094 67.359375 78.539062 69.605469 78.789062 71.875 C 78.910156 73 78.976562 74.140625 78.960938 75.273438 Z M 47.441406 57.246094 C 47.441406 57.753906 47.855469 58.167969 48.363281 58.167969 C 48.875 58.167969 49.289062 57.753906 49.289062 57.246094 L 49.289062 55.347656 C 49.289062 54.835938 48.875 54.425781 48.363281 54.425781 C 47.855469 54.425781 47.441406 54.835938 47.441406 55.347656 Z M 47.0625 60.105469 C 47.0625 57.25 44.746094 54.9375 41.894531 54.9375 C 39.042969 54.9375 36.726562 57.253906 36.726562 60.105469 C 36.726562 62.957031 39.042969 65.273438 41.894531 65.273438 C 44.746094 65.273438 47.0625 62.957031 47.0625 60.105469 Z M 51.214844 67.742188 C 51.214844 66.257812 50.015625 65.058594 48.53125 65.058594 C 47.050781 65.058594 45.847656 66.257812 45.847656 67.742188 C 45.847656 69.222656 47.050781 70.425781 48.53125 70.425781 C 50.015625 70.425781 51.214844 69.222656 51.214844 67.742188 Z M 55.957031 67.796875 C 56.007812 67.796875 56.0625 67.796875 56.113281 67.792969 C 56.273438 67.773438 56.402344 67.710938 56.480469 67.5625 C 56.535156 67.460938 56.546875 67.351562 56.539062 67.238281 C 56.523438 67 56.328125 66.816406 56.089844 66.816406 C 55.363281 66.816406 54.632812 66.816406 53.90625 66.816406 C 53.890625 66.816406 53.878906 66.816406 53.859375 66.816406 C 53.859375 66.871094 53.859375 66.914062 53.855469 66.960938 C 53.855469 66.996094 53.871094 67.007812 53.90625 67.007812 C 54.292969 67.003906 54.679688 67.003906 55.070312 67.003906 C 55.34375 67.003906 55.617188 67.003906 55.890625 67.003906 C 56.023438 67.003906 56.113281 67.070312 56.136719 67.199219 C 56.148438 67.253906 56.152344 67.3125 56.144531 67.371094 C 56.125 67.53125 56.035156 67.601562 55.875 67.601562 C 55.359375 67.601562 54.839844 67.605469 54.316406 67.597656 C 54.058594 67.597656 53.878906 67.792969 53.863281 68.027344 C 53.851562 68.222656 53.859375 68.417969 53.855469 68.613281 C 53.855469 68.636719 53.863281 68.648438 53.890625 68.648438 C 53.996094 68.644531 54.105469 68.644531 54.210938 68.648438 C 54.242188 68.648438 54.25 68.632812 54.25 68.609375 C 54.246094 68.460938 54.246094 68.3125 54.25 68.164062 C 54.25 68.121094 54.25 68.078125 54.253906 68.03125 C 54.269531 67.910156 54.351562 67.792969 54.515625 67.796875 C 55 67.800781 55.476562 67.800781 55.957031 67.796875 Z M 58.992188 66.820312 C 58.976562 66.820312 58.972656 66.820312 58.960938 66.820312 C 58.542969 66.820312 58.125 66.816406 57.707031 66.820312 C 57.566406 66.824219 57.445312 66.886719 57.363281 67 C 57.300781 67.089844 57.273438 67.1875 57.273438 67.296875 C 57.273438 67.585938 57.277344 67.875 57.273438 68.164062 C 57.273438 68.332031 57.191406 68.457031 56.988281 68.453125 C 56.640625 68.445312 56.292969 68.449219 55.945312 68.449219 C 55.933594 68.449219 55.925781 68.453125 55.917969 68.449219 C 55.894531 68.449219 55.886719 68.460938 55.886719 68.484375 C 55.886719 68.527344 55.886719 68.570312 55.886719 68.613281 C 55.882812 68.640625 55.894531 68.648438 55.925781 68.648438 C 56.335938 68.648438 56.746094 68.648438 57.160156 68.648438 C 57.269531 68.648438 57.371094 68.625 57.464844 68.566406 C 57.605469 68.472656 57.664062 68.332031 57.664062 68.167969 C 57.667969 67.890625 57.664062 67.609375 57.664062 67.328125 C 57.667969 67.292969 57.667969 67.257812 57.675781 67.222656 C 57.6875 67.117188 57.753906 67.039062 57.847656 67.019531 C 57.878906 67.007812 57.910156 67.007812 57.945312 67.007812 C 58.277344 67.007812 58.609375 67.007812 58.941406 67.007812 C 58.949219 67.007812 58.960938 67.011719 58.964844 67.007812 C 58.976562 67 58.992188 66.992188 58.992188 66.984375 C 58.992188 66.929688 58.992188 66.878906 58.992188 66.820312 Z M 62.953125 57.246094 C 62.953125 57.753906 63.367188 58.167969 63.878906 58.167969 C 64.386719 58.167969 64.800781 57.753906 64.800781 57.246094 L 64.800781 55.347656 C 64.800781 54.835938 64.386719 54.425781 63.878906 54.425781 C 63.367188 54.425781 62.953125 54.835938 62.953125 55.347656 Z M 66.394531 67.742188 C 66.394531 66.257812 65.191406 65.058594 63.710938 65.058594 C 62.226562 65.058594 61.023438 66.257812 61.023438 67.742188 C 61.023438 69.222656 62.226562 70.425781 63.710938 70.425781 C 65.191406 70.425781 66.394531 69.222656 66.394531 67.742188 Z M 75.511719 60.105469 C 75.511719 57.25 73.199219 54.9375 70.34375 54.9375 C 67.492188 54.9375 65.179688 57.253906 65.179688 60.105469 C 65.179688 62.957031 67.492188 65.273438 70.34375 65.273438 C 73.199219 65.273438 75.511719 62.957031 75.511719 60.105469 Z M 68.632812 60.015625 C 68.632812 60.847656 67.957031 61.519531 67.128906 61.519531 C 66.296875 61.519531 65.625 60.84375 65.625 60.015625 C 65.625 59.1875 66.300781 58.511719 67.128906 58.511719 C 67.957031 58.511719 68.632812 59.1875 68.632812 60.015625 Z M 67.949219 59.179688 L 66.3125 59.179688 L 66.3125 60.816406 L 67.949219 60.816406 Z M 45.8125 58.734375 L 43.910156 58.734375 C 43.722656 58.734375 43.519531 58.8125 43.367188 58.941406 L 43.367188 58.9375 L 42.285156 59.929688 C 42.183594 60.023438 42.183594 60.175781 42.285156 60.265625 L 43.28125 61.179688 C 43.433594 61.351562 43.683594 61.46875 43.910156 61.46875 L 45.8125 61.46875 C 46.171875 61.46875 46.460938 61.179688 46.460938 60.824219 L 46.460938 59.378906 C 46.460938 59.023438 46.171875 58.734375 45.8125 58.734375 Z M 67.761719 59.363281 L 66.496094 59.363281 L 66.496094 60.632812 L 67.761719 60.632812 Z M 67.761719 59.363281 "/>
</g>
</svg>
