<?xml version="1.0" encoding="UTF-8"?>
<svg xmlns="http://www.w3.org/2000/svg" xmlns:xlink="http://www.w3.org/1999/xlink" width="130px" height="130px" viewBox="0 0 130 130" version="1.1">
<g id="surface1">
<path style=" stroke:none;fill-rule:nonzero;fill:rgb(97.254902%,92.54902%,49.019608%);fill-opacity:1;" d="M 125.9375 64.539062 L 125.9375 115.851562 C 125.9375 119.089844 123.3125 121.714844 120.078125 121.714844 L 85.285156 121.714844 C 82.046875 121.714844 79.421875 119.089844 79.425781 115.851562 L 79.425781 64.539062 C 79.425781 61.300781 82.046875 58.675781 85.285156 58.679688 L 93.199219 58.679688 L 93.199219 58.695312 C 93.199219 61.101562 95.148438 63.054688 97.554688 63.050781 L 107.804688 63.050781 C 110.210938 63.054688 112.164062 61.101562 112.164062 58.695312 L 112.164062 58.679688 L 120.078125 58.679688 C 123.3125 58.679688 125.9375 61.300781 125.9375 64.539062 Z M 95.703125 97.023438 L 95.703125 88.652344 L 87.332031 88.652344 L 87.332031 97.023438 Z M 95.703125 97.023438 "/>
<path style=" stroke:none;fill-rule:nonzero;fill:rgb(43.529412%,89.019608%,100%);fill-opacity:1;" d="M 93.199219 58.679688 L 93.199219 58.410156 C 93.199219 56.003906 95.148438 54.054688 97.554688 54.054688 L 107.804688 54.054688 C 110.210938 54.054688 112.164062 56.003906 112.164062 58.410156 L 112.164062 58.695312 C 112.164062 61.101562 110.210938 63.054688 107.804688 63.050781 L 97.554688 63.050781 C 95.148438 63.054688 93.199219 61.101562 93.199219 58.695312 Z M 93.199219 58.679688 "/>
<path style=" stroke:none;fill-rule:nonzero;fill:rgb(75.686275%,40.392157%,32.156863%);fill-opacity:1;" d="M 99.355469 35.796875 L 99.355469 54.054688 L 97.554688 54.054688 C 95.148438 54.054688 93.199219 56.003906 93.199219 58.410156 L 93.199219 58.679688 L 85.285156 58.679688 C 82.046875 58.675781 79.425781 61.300781 79.425781 64.539062 L 79.425781 102.320312 L 51.707031 118.320312 L 51.707031 63.296875 L 99.351562 35.792969 Z M 99.355469 35.796875 "/>
<path style=" stroke:none;fill-rule:nonzero;fill:rgb(68.627451%,34.901961%,23.529412%);fill-opacity:1;" d="M 51.707031 63.296875 L 27.417969 49.277344 L 75.058594 21.765625 L 75.0625 21.765625 L 99.351562 35.792969 Z M 51.707031 63.296875 "/>
<path style=" stroke:none;fill-rule:nonzero;fill:rgb(43.529412%,89.019608%,100%);fill-opacity:1;" d="M 87.332031 88.652344 L 95.703125 88.652344 L 95.703125 97.023438 L 87.332031 97.023438 Z M 87.332031 88.652344 "/>
<path style=" stroke:none;fill-rule:nonzero;fill:rgb(75.686275%,40.392157%,32.156863%);fill-opacity:1;" d="M 75.058594 21.765625 L 27.417969 49.277344 L 4.066406 35.792969 L 51.707031 8.285156 Z M 75.058594 21.765625 "/>
<path style=" stroke:none;fill-rule:nonzero;fill:rgb(89.411765%,55.686275%,40%);fill-opacity:1;" d="M 51.707031 63.296875 L 51.707031 118.320312 L 4.0625 90.8125 L 4.0625 35.796875 L 4.066406 35.792969 L 27.417969 49.277344 Z M 51.707031 63.296875 "/>
<path style=" stroke:none;fill-rule:nonzero;fill:rgb(43.529412%,89.019608%,100%);fill-opacity:1;" d="M 89.191406 82.523438 L 87.332031 82.523438 C 86.347656 82.523438 85.554688 81.726562 85.554688 80.746094 L 85.554688 72.371094 C 85.554688 71.390625 86.347656 70.59375 87.332031 70.59375 L 95.703125 70.59375 C 96.683594 70.59375 97.480469 71.390625 97.480469 72.371094 L 97.480469 73.566406 C 97.480469 74.433594 96.855469 75.175781 95.996094 75.320312 C 95.140625 75.464844 94.304688 74.96875 94.023438 74.148438 L 89.109375 74.148438 L 89.109375 78.96875 L 89.191406 78.96875 C 90.171875 78.96875 90.96875 79.761719 90.96875 80.746094 C 90.96875 81.726562 90.171875 82.523438 89.191406 82.523438 Z M 89.191406 82.523438 "/>
<path style=" stroke:none;fill-rule:nonzero;fill:rgb(43.529412%,89.019608%,100%);fill-opacity:1;" d="M 89.191406 115.082031 L 87.332031 115.082031 C 86.347656 115.082031 85.554688 114.285156 85.554688 113.304688 L 85.554688 104.933594 C 85.554688 103.949219 86.347656 103.15625 87.332031 103.15625 L 95.703125 103.15625 C 96.683594 103.15625 97.480469 103.949219 97.480469 104.933594 L 97.480469 106.644531 C 97.496094 107.625 96.71875 108.433594 95.734375 108.453125 C 94.753906 108.472656 93.941406 107.691406 93.925781 106.710938 L 89.109375 106.710938 L 89.109375 111.527344 L 89.191406 111.527344 C 90.171875 111.527344 90.96875 112.320312 90.96875 113.304688 C 90.96875 114.285156 90.171875 115.082031 89.191406 115.082031 Z M 89.191406 115.082031 "/>
<path style=" stroke:none;fill-rule:nonzero;fill:rgb(14.509804%,38.039216%,63.137255%);fill-opacity:1;" d="M 94.589844 82.261719 C 94.117188 82.265625 93.667969 82.078125 93.335938 81.742188 L 90.492188 78.90625 C 89.796875 78.210938 89.796875 77.085938 90.492188 76.390625 C 91.1875 75.695312 92.3125 75.695312 93.003906 76.390625 L 94.589844 77.972656 L 99.796875 72.769531 C 100.488281 72.074219 101.613281 72.074219 102.308594 72.769531 C 103.003906 73.464844 103.003906 74.589844 102.308594 75.28125 L 95.847656 81.746094 C 95.515625 82.078125 95.0625 82.265625 94.589844 82.261719 Z M 94.589844 82.261719 "/>
<path style=" stroke:none;fill-rule:nonzero;fill:rgb(14.509804%,38.039216%,63.137255%);fill-opacity:1;" d="M 94.589844 115.082031 C 94.117188 115.082031 93.667969 114.894531 93.335938 114.558594 L 90.492188 111.722656 C 89.796875 111.027344 89.796875 109.902344 90.492188 109.207031 C 91.1875 108.515625 92.3125 108.515625 93.003906 109.207031 L 94.589844 110.792969 L 99.796875 105.585938 C 100.488281 104.890625 101.613281 104.890625 102.308594 105.585938 C 103.003906 106.28125 103.003906 107.40625 102.308594 108.101562 L 95.847656 114.5625 C 95.515625 114.894531 95.0625 115.082031 94.589844 115.082031 Z M 94.589844 115.082031 "/>
<path style=" stroke:none;fill-rule:nonzero;fill:rgb(89.411765%,55.686275%,40%);fill-opacity:1;" d="M 118.03125 78.335938 L 106.867188 78.335938 C 105.886719 78.335938 105.089844 77.539062 105.089844 76.558594 C 105.089844 75.578125 105.886719 74.78125 106.867188 74.78125 L 118.03125 74.78125 C 119.011719 74.78125 119.808594 75.578125 119.808594 76.558594 C 119.808594 77.539062 119.011719 78.335938 118.03125 78.335938 Z M 118.03125 78.335938 "/>
<path style=" stroke:none;fill-rule:nonzero;fill:rgb(89.411765%,55.686275%,40%);fill-opacity:1;" d="M 118.03125 94.617188 L 106.867188 94.617188 C 105.886719 94.617188 105.089844 93.820312 105.089844 92.839844 C 105.089844 91.855469 105.886719 91.0625 106.867188 91.0625 L 118.03125 91.0625 C 119.011719 91.0625 119.808594 91.855469 119.808594 92.839844 C 119.808594 93.820312 119.011719 94.617188 118.03125 94.617188 Z M 118.03125 94.617188 "/>
<path style=" stroke:none;fill-rule:nonzero;fill:rgb(89.411765%,55.686275%,40%);fill-opacity:1;" d="M 118.03125 110.894531 L 106.867188 110.894531 C 105.886719 110.894531 105.089844 110.101562 105.089844 109.117188 C 105.089844 108.136719 105.886719 107.339844 106.867188 107.339844 L 118.03125 107.339844 C 119.011719 107.339844 119.808594 108.136719 119.808594 109.117188 C 119.808594 110.101562 119.011719 110.894531 118.03125 110.894531 Z M 118.03125 110.894531 "/>
</g>
</svg>
