<?xml version="1.0" encoding="UTF-8"?>
<svg xmlns="http://www.w3.org/2000/svg" xmlns:xlink="http://www.w3.org/1999/xlink" width="130px" height="130px" viewBox="0 0 130 130" version="1.1">
<g id="surface1">
<path style=" stroke:none;fill-rule:evenodd;fill:rgb(100%,81.568627%,39.215686%);fill-opacity:1;" d="M 47.640625 14.648438 C 37.207031 4.214844 20.289062 4.214844 9.855469 14.648438 C -0.578125 25.082031 -0.578125 41.996094 9.855469 52.429688 C 20.289062 62.863281 37.207031 62.863281 47.640625 52.429688 C 58.074219 41.996094 58.074219 25.082031 47.640625 14.648438 Z M 47.640625 14.648438 "/>
<path style=" stroke:none;fill-rule:evenodd;fill:rgb(100%,76.470588%,21.960784%);fill-opacity:1;" d="M 28.753906 6.820312 C 43.511719 6.820312 55.476562 18.78125 55.476562 33.539062 C 55.476562 48.296875 43.511719 60.257812 28.753906 60.257812 Z M 28.753906 6.820312 "/>
<path style=" stroke:none;fill-rule:evenodd;fill:rgb(100%,88.235294%,46.666667%);fill-opacity:1;" d="M 51.414062 33.539062 C 51.414062 46.054688 41.269531 56.195312 28.753906 56.195312 C 16.242188 56.195312 6.097656 46.054688 6.097656 33.539062 C 6.097656 21.027344 16.242188 10.882812 28.753906 10.882812 C 41.269531 10.882812 51.414062 21.027344 51.414062 33.539062 Z M 51.414062 33.539062 "/>
<path style=" stroke:none;fill-rule:evenodd;fill:rgb(100%,81.568627%,39.215686%);fill-opacity:1;" d="M 28.753906 10.882812 C 41.269531 10.882812 51.414062 21.027344 51.414062 33.539062 C 51.414062 46.054688 41.269531 56.195312 28.753906 56.195312 Z M 28.753906 10.882812 "/>
<path style=" stroke:none;fill-rule:evenodd;fill:rgb(99.607843%,39.215686%,43.529412%);fill-opacity:1;" d="M 21.617188 91.386719 L 33.113281 91.386719 C 34.511719 91.386719 35.652344 92.527344 35.652344 93.925781 L 35.652344 120.644531 C 35.652344 122.042969 34.511719 123.183594 33.113281 123.183594 L 21.617188 123.183594 C 20.21875 123.183594 19.078125 122.042969 19.078125 120.644531 L 19.078125 93.925781 C 19.078125 92.527344 20.21875 91.386719 21.617188 91.386719 Z M 21.617188 91.386719 "/>
<path style=" stroke:none;fill-rule:evenodd;fill:rgb(99.215686%,27.843137%,33.333333%);fill-opacity:1;" d="M 27.363281 91.386719 L 33.113281 91.386719 C 34.511719 91.386719 35.652344 92.527344 35.652344 93.925781 L 35.652344 120.644531 C 35.652344 122.042969 34.511719 123.183594 33.113281 123.183594 L 27.363281 123.183594 Z M 27.363281 91.386719 "/>
<path style=" stroke:none;fill-rule:evenodd;fill:rgb(100%,88.235294%,46.666667%);fill-opacity:1;" d="M 52.390625 63.425781 L 63.886719 63.425781 C 65.285156 63.425781 66.425781 64.566406 66.425781 65.964844 L 66.425781 120.644531 C 66.425781 122.042969 65.285156 123.183594 63.886719 123.183594 L 52.390625 123.183594 C 50.992188 123.183594 49.851562 122.042969 49.851562 120.644531 L 49.851562 65.964844 C 49.851562 64.566406 50.992188 63.425781 52.390625 63.425781 Z M 52.390625 63.425781 "/>
<path style=" stroke:none;fill-rule:evenodd;fill:rgb(100%,81.568627%,39.215686%);fill-opacity:1;" d="M 58.136719 63.425781 L 63.886719 63.425781 C 65.285156 63.425781 66.425781 64.566406 66.425781 65.964844 L 66.425781 120.644531 C 66.425781 122.042969 65.285156 123.183594 63.886719 123.183594 L 58.136719 123.183594 Z M 58.136719 63.425781 "/>
<path style=" stroke:none;fill-rule:evenodd;fill:rgb(42.352941%,96.078431%,76.078431%);fill-opacity:1;" d="M 83.164062 74.730469 L 94.660156 74.730469 C 96.058594 74.730469 97.199219 75.871094 97.199219 77.269531 L 97.199219 120.644531 C 97.199219 122.042969 96.058594 123.183594 94.660156 123.183594 C 90.828125 123.183594 86.996094 123.183594 83.164062 123.183594 C 81.765625 123.183594 80.625 122.042969 80.625 120.644531 C 80.625 105.292969 80.625 92.621094 80.625 77.269531 C 80.625 75.871094 81.765625 74.730469 83.164062 74.730469 Z M 83.164062 74.730469 "/>
<path style=" stroke:none;fill-rule:evenodd;fill:rgb(0%,89.411765%,60%);fill-opacity:1;" d="M 88.910156 74.730469 L 94.660156 74.730469 C 96.058594 74.730469 97.199219 75.871094 97.199219 77.269531 L 97.199219 120.644531 C 97.199219 122.042969 96.058594 123.183594 94.660156 123.183594 L 88.910156 123.183594 Z M 88.910156 74.730469 "/>
<path style=" stroke:none;fill-rule:evenodd;fill:rgb(54.117647%,78.823529%,99.607843%);fill-opacity:1;" d="M 113.9375 41.6875 L 125.433594 41.6875 C 126.832031 41.6875 127.972656 42.828125 127.972656 44.226562 L 127.972656 120.644531 C 127.972656 122.042969 126.832031 123.183594 125.433594 123.183594 L 113.9375 123.183594 C 112.539062 123.183594 111.398438 122.042969 111.398438 120.644531 L 111.398438 44.226562 C 111.398438 42.828125 112.539062 41.6875 113.9375 41.6875 Z M 113.9375 41.6875 "/>
<path style=" stroke:none;fill-rule:evenodd;fill:rgb(37.647059%,71.764706%,100%);fill-opacity:1;" d="M 119.683594 41.6875 L 125.433594 41.6875 C 126.832031 41.6875 127.972656 42.828125 127.972656 44.226562 L 127.972656 120.644531 C 127.972656 122.042969 126.832031 123.183594 125.433594 123.183594 L 119.683594 123.183594 Z M 119.683594 41.6875 "/>
<path style=" stroke:none;fill-rule:evenodd;fill:rgb(0%,0%,0%);fill-opacity:1;" d="M 39.230469 39.5625 C 39.535156 42.054688 38.664062 44.644531 36.371094 46.386719 C 34.792969 47.582031 32.761719 48.289062 30.785156 48.566406 L 30.785156 50.449219 C 30.785156 51.570312 29.875 52.480469 28.753906 52.480469 C 27.628906 52.480469 26.722656 51.570312 26.722656 50.449219 L 26.722656 48.527344 C 25.078125 48.261719 23.507812 47.679688 22.164062 46.785156 C 20.273438 45.523438 18.824219 43.667969 18.210938 41.210938 C 17.945312 40.125 18.609375 39.027344 19.695312 38.757812 C 20.78125 38.492188 21.882812 39.15625 22.148438 40.242188 C 22.492188 41.628906 23.320312 42.683594 24.402344 43.40625 C 27.0625 45.175781 31.355469 45.113281 33.925781 43.164062 C 36.195312 41.441406 35.363281 38.269531 33.164062 36.941406 C 31.828125 36.136719 30.082031 35.710938 28.453125 35.441406 C 26.46875 35.117188 24.324219 34.527344 22.582031 33.390625 C 18.089844 30.457031 17.957031 24.007812 22.058594 20.671875 C 23.316406 19.648438 24.882812 18.945312 26.550781 18.609375 L 26.722656 18.578125 L 26.722656 16.628906 C 26.722656 15.507812 27.628906 14.601562 28.753906 14.601562 C 29.875 14.601562 30.785156 15.507812 30.785156 16.628906 L 30.785156 18.546875 C 31.054688 18.59375 31.328125 18.652344 31.597656 18.71875 C 34.484375 19.453125 37.109375 21.351562 38.492188 24.636719 C 38.925781 25.671875 38.4375 26.863281 37.402344 27.292969 C 36.371094 27.730469 35.179688 27.242188 34.746094 26.207031 C 33.757812 23.855469 31.332031 22.457031 28.796875 22.457031 C 26.097656 22.453125 22.945312 24.078125 23.09375 27.160156 C 23.238281 30.140625 26.707031 31.050781 29.101562 31.445312 C 31.15625 31.78125 33.394531 32.34375 35.257812 33.464844 C 37.539062 34.84375 38.933594 37.15625 39.230469 39.5625 Z M 33.617188 120.644531 C 33.617188 120.917969 33.386719 121.152344 33.109375 121.152344 L 21.613281 121.152344 C 21.339844 121.152344 21.105469 120.917969 21.105469 120.644531 L 21.105469 93.925781 C 21.105469 93.652344 21.339844 93.417969 21.613281 93.417969 L 33.109375 93.417969 C 33.386719 93.417969 33.617188 93.652344 33.617188 93.925781 Z M 33.109375 89.355469 L 21.613281 89.355469 C 19.09375 89.355469 17.042969 91.40625 17.042969 93.925781 L 17.042969 120.644531 C 17.042969 123.164062 19.09375 125.214844 21.613281 125.214844 L 33.109375 125.214844 C 35.628906 125.214844 37.679688 123.164062 37.679688 120.644531 L 37.679688 93.925781 C 37.679688 91.40625 35.628906 89.355469 33.109375 89.355469 Z M 125.9375 120.644531 C 125.9375 120.917969 125.703125 121.152344 125.429688 121.152344 L 113.933594 121.152344 C 113.660156 121.152344 113.425781 120.917969 113.425781 120.644531 L 113.425781 44.226562 C 113.425781 43.949219 113.660156 43.71875 113.933594 43.71875 L 125.429688 43.71875 C 125.703125 43.71875 125.9375 43.949219 125.9375 44.226562 Z M 125.429688 39.65625 L 113.933594 39.65625 C 111.414062 39.65625 109.363281 41.707031 109.363281 44.226562 L 109.363281 120.644531 C 109.363281 123.164062 111.414062 125.214844 113.933594 125.214844 L 125.429688 125.214844 C 127.949219 125.214844 130 123.164062 130 120.644531 L 130 44.226562 C 130 41.707031 127.949219 39.65625 125.429688 39.65625 Z M 95.164062 120.644531 C 95.164062 120.917969 94.933594 121.152344 94.65625 121.152344 L 83.160156 121.152344 C 82.886719 121.152344 82.652344 120.917969 82.652344 120.644531 L 82.652344 77.269531 C 82.652344 76.992188 82.886719 76.761719 83.160156 76.761719 L 94.65625 76.761719 C 94.933594 76.761719 95.164062 76.992188 95.164062 77.269531 Z M 94.65625 72.699219 L 83.160156 72.699219 C 80.640625 72.699219 78.59375 74.746094 78.59375 77.269531 L 78.59375 120.644531 C 78.59375 123.164062 80.640625 125.214844 83.160156 125.214844 L 94.65625 125.214844 C 97.179688 125.214844 99.226562 123.164062 99.226562 120.644531 L 99.226562 77.269531 C 99.226562 74.746094 97.179688 72.699219 94.65625 72.699219 Z M 64.390625 120.644531 C 64.390625 120.917969 64.160156 121.152344 63.882812 121.152344 L 52.386719 121.152344 C 52.113281 121.152344 51.882812 120.917969 51.882812 120.644531 L 51.882812 65.964844 C 51.882812 65.691406 52.113281 65.457031 52.386719 65.457031 L 63.882812 65.457031 C 64.160156 65.457031 64.390625 65.691406 64.390625 65.964844 Z M 63.882812 61.394531 L 52.386719 61.394531 C 49.867188 61.394531 47.816406 63.445312 47.816406 65.964844 L 47.816406 120.644531 C 47.816406 123.164062 49.867188 125.214844 52.386719 125.214844 L 63.882812 125.214844 C 66.402344 125.214844 68.453125 123.164062 68.453125 120.644531 L 68.453125 65.964844 C 68.453125 63.445312 66.402344 61.394531 63.882812 61.394531 Z M 28.75 58.230469 C 42.367188 58.230469 53.441406 47.152344 53.441406 33.539062 C 53.441406 19.925781 42.367188 8.851562 28.75 8.851562 C 15.136719 8.851562 4.0625 19.925781 4.0625 33.539062 C 4.0625 47.152344 15.136719 58.230469 28.75 58.230469 Z M 125.214844 18.703125 C 125.128906 19.820312 125.964844 20.796875 127.082031 20.886719 C 128.199219 20.972656 129.175781 20.136719 129.261719 19.019531 L 129.992188 10.097656 C 130 9.972656 130 9.839844 129.984375 9.710938 C 129.859375 8.597656 128.851562 7.796875 127.738281 7.925781 L 118.847656 8.972656 C 117.738281 9.101562 116.9375 10.105469 117.0625 11.21875 C 117.191406 12.332031 118.195312 13.128906 119.308594 13.003906 L 122.585938 12.617188 L 99.390625 36.734375 L 75.117188 24.757812 C 74.386719 24.335938 73.4375 24.398438 72.765625 24.984375 L 57.042969 38.679688 C 57.34375 37.011719 57.503906 35.292969 57.503906 33.539062 C 57.503906 17.6875 44.605469 4.789062 28.75 4.789062 C 12.898438 4.789062 0 17.6875 0 33.539062 C 0 49.394531 12.898438 62.292969 28.75 62.292969 C 40.046875 62.292969 49.839844 55.742188 54.539062 46.242188 L 74.414062 28.933594 L 98.925781 41.023438 C 99.757812 41.433594 100.730469 41.222656 101.324219 40.570312 L 125.484375 15.445312 Z M 125.214844 18.703125 "/>
</g>
</svg>
