<?xml version="1.0" encoding="UTF-8"?>
<svg xmlns="http://www.w3.org/2000/svg" xmlns:xlink="http://www.w3.org/1999/xlink" width="80px" height="80px" viewBox="0 0 80 80" version="1.1">
<g id="surface1">
<path style=" stroke:none;fill-rule:nonzero;fill:rgb(34.509804%,38.431373%,43.921569%);fill-opacity:1;" d="M 72.246094 36.355469 C 70.828125 32.6875 68.335938 29.527344 65.089844 27.300781 C 62.859375 25.882812 60.363281 24.933594 57.75 24.507812 C 55.878906 24.183594 53.949219 24.59375 52.371094 25.65625 C 51.042969 26.558594 49.488281 27.066406 47.882812 27.117188 L 30.78125 27.117188 C 29.175781 27.066406 27.617188 26.558594 26.289062 25.65625 C 24.710938 24.59375 22.785156 24.183594 20.910156 24.507812 C 18.300781 24.933594 15.804688 25.882812 13.570312 27.300781 C 10.328125 29.527344 7.832031 32.6875 6.414062 36.355469 C 2.089844 46.742188 -0.0898438 57.898438 0.0117188 69.148438 C -0.0820312 72.472656 0.941406 75.730469 2.925781 78.398438 C 3.714844 79.410156 4.925781 80 6.207031 80 C 7.492188 80 8.703125 79.410156 9.492188 78.398438 L 17.5 67.570312 C 19.292969 65.152344 22.121094 63.726562 25.132812 63.726562 L 53.53125 63.726562 C 56.539062 63.726562 59.371094 65.152344 61.160156 67.570312 L 69.171875 78.390625 C 69.960938 79.402344 71.171875 79.992188 72.453125 79.992188 C 73.734375 79.992188 74.945312 79.402344 75.738281 78.390625 C 77.71875 75.722656 78.742188 72.46875 78.648438 69.148438 C 78.75 57.898438 76.570312 46.742188 72.246094 36.355469 Z M 72.246094 36.355469 "/>
<path style=" stroke:none;fill-rule:nonzero;fill:rgb(56.862745%,61.568627%,61.960784%);fill-opacity:1;" d="M 72.699219 61.015625 C 72.007812 61.011719 71.429688 60.496094 71.351562 59.808594 C 70.957031 56.214844 70.3125 52.652344 69.429688 49.144531 C 69.3125 48.675781 69.453125 48.175781 69.800781 47.839844 C 70.144531 47.5 70.648438 47.375 71.113281 47.507812 C 71.582031 47.636719 71.941406 48.007812 72.0625 48.476562 C 72.976562 52.105469 73.640625 55.789062 74.054688 59.507812 C 74.132812 60.25 73.601562 60.914062 72.859375 61 C 72.804688 61.007812 72.753906 61.011719 72.699219 61.015625 Z M 72.699219 61.015625 "/>
<path style=" stroke:none;fill-rule:nonzero;fill:rgb(56.862745%,61.568627%,61.960784%);fill-opacity:1;" d="M 6.3125 58.300781 C 6.246094 58.300781 6.179688 58.296875 6.113281 58.289062 C 5.371094 58.179688 4.859375 57.492188 4.96875 56.75 C 5.308594 54.414062 5.746094 52.097656 6.269531 49.855469 C 6.382812 49.386719 6.734375 49.007812 7.199219 48.871094 C 7.664062 48.730469 8.167969 48.847656 8.519531 49.179688 C 8.871094 49.511719 9.023438 50.007812 8.910156 50.476562 C 8.402344 52.640625 7.980469 54.882812 7.652344 57.140625 C 7.554688 57.808594 6.984375 58.300781 6.3125 58.300781 Z M 6.3125 58.300781 "/>
<path style=" stroke:none;fill-rule:nonzero;fill:rgb(56.862745%,61.568627%,61.960784%);fill-opacity:1;" d="M 5.433594 70.503906 C 4.6875 70.503906 4.078125 69.898438 4.078125 69.148438 C 4.078125 66.859375 4.167969 64.539062 4.351562 62.261719 C 4.386719 61.78125 4.679688 61.355469 5.117188 61.144531 C 5.554688 60.9375 6.070312 60.980469 6.472656 61.253906 C 6.871094 61.527344 7.09375 61.992188 7.054688 62.476562 C 6.878906 64.683594 6.789062 66.929688 6.789062 69.148438 C 6.789062 69.898438 6.183594 70.503906 5.433594 70.503906 Z M 5.433594 70.503906 "/>
<path style=" stroke:none;fill-rule:nonzero;fill:rgb(22.745098%,24.313725%,28.235294%);fill-opacity:1;" d="M 24.417969 36.609375 C 24.417969 39.605469 21.988281 42.03125 18.992188 42.03125 C 15.996094 42.03125 13.570312 39.605469 13.570312 36.609375 C 13.570312 33.613281 15.996094 31.1875 18.992188 31.1875 C 21.988281 31.1875 24.417969 33.613281 24.417969 36.609375 Z M 24.417969 36.609375 "/>
<path style=" stroke:none;fill-rule:nonzero;fill:rgb(22.745098%,24.313725%,28.235294%);fill-opacity:1;" d="M 35.261719 52.878906 C 35.261719 56.625 32.226562 59.660156 28.484375 59.660156 C 24.738281 59.660156 21.703125 56.625 21.703125 52.878906 C 21.703125 49.136719 24.738281 46.101562 28.484375 46.101562 C 32.226562 46.101562 35.261719 49.136719 35.261719 52.878906 Z M 35.261719 52.878906 "/>
<path style=" stroke:none;fill-rule:nonzero;fill:rgb(22.745098%,24.313725%,28.235294%);fill-opacity:1;" d="M 55.601562 52.878906 C 55.601562 55.875 53.171875 58.300781 50.175781 58.300781 C 47.183594 58.300781 44.753906 55.875 44.753906 52.878906 C 44.753906 49.882812 47.183594 47.457031 50.175781 47.457031 C 53.171875 47.457031 55.601562 49.882812 55.601562 52.878906 Z M 55.601562 52.878906 "/>
<path style=" stroke:none;fill-rule:nonzero;fill:rgb(34.509804%,38.431373%,43.921569%);fill-opacity:1;" d="M 54.246094 52.878906 C 54.246094 55.125 52.425781 56.945312 50.175781 56.945312 C 47.929688 56.945312 46.109375 55.125 46.109375 52.878906 C 46.109375 50.632812 47.929688 48.8125 50.175781 48.8125 C 52.425781 48.8125 54.246094 50.632812 54.246094 52.878906 Z M 54.246094 52.878906 "/>
<path style=" stroke:none;fill-rule:nonzero;fill:rgb(34.509804%,38.431373%,43.921569%);fill-opacity:1;" d="M 23.0625 36.609375 C 23.0625 38.855469 21.238281 40.675781 18.992188 40.675781 C 16.746094 40.675781 14.925781 38.855469 14.925781 36.609375 C 14.925781 34.363281 16.746094 32.542969 18.992188 32.542969 C 21.238281 32.542969 23.0625 34.363281 23.0625 36.609375 Z M 23.0625 36.609375 "/>
<path style=" stroke:none;fill-rule:nonzero;fill:rgb(22.745098%,24.313725%,28.235294%);fill-opacity:1;" d="M 35.914062 36.609375 C 35.914062 37.734375 35.003906 38.644531 33.882812 38.644531 C 32.757812 38.644531 31.847656 37.734375 31.847656 36.609375 C 31.847656 35.484375 32.757812 34.574219 33.882812 34.574219 C 35.003906 34.574219 35.914062 35.484375 35.914062 36.609375 Z M 35.914062 36.609375 "/>
<path style=" stroke:none;fill-rule:nonzero;fill:rgb(22.745098%,24.313725%,28.235294%);fill-opacity:1;" d="M 46.789062 36.609375 C 46.789062 37.734375 45.878906 38.644531 44.753906 38.644531 C 43.628906 38.644531 42.71875 37.734375 42.71875 36.609375 C 42.71875 35.484375 43.628906 34.574219 44.753906 34.574219 C 45.878906 34.574219 46.789062 35.484375 46.789062 36.609375 Z M 46.789062 36.609375 "/>
<path style=" stroke:none;fill-rule:nonzero;fill:rgb(36.470588%,76.470588%,50.980392%);fill-opacity:1;" d="M 40.6875 18.984375 C 40.6875 19.730469 40.078125 20.339844 39.332031 20.339844 C 38.582031 20.339844 37.976562 19.730469 37.976562 18.984375 C 37.976562 18.234375 38.582031 17.628906 39.332031 17.628906 C 40.078125 17.628906 40.6875 18.234375 40.6875 18.984375 Z M 40.6875 18.984375 "/>
<path style=" stroke:none;fill-rule:nonzero;fill:rgb(32.941176%,58.823529%,80.784314%);fill-opacity:1;" d="M 58.3125 37.964844 C 58.3125 39.460938 57.097656 40.675781 55.601562 40.675781 C 54.101562 40.675781 52.890625 39.460938 52.890625 37.964844 C 52.890625 36.46875 54.101562 35.253906 55.601562 35.253906 C 57.097656 35.253906 58.3125 36.46875 58.3125 37.964844 Z M 58.3125 37.964844 "/>
<path style=" stroke:none;fill-rule:nonzero;fill:rgb(36.470588%,76.470588%,50.980392%);fill-opacity:1;" d="M 63.734375 43.386719 C 63.734375 44.886719 62.523438 46.101562 61.023438 46.101562 C 59.527344 46.101562 58.3125 44.886719 58.3125 43.386719 C 58.3125 41.890625 59.527344 40.675781 61.023438 40.675781 C 62.523438 40.675781 63.734375 41.890625 63.734375 43.386719 Z M 63.734375 43.386719 "/>
<path style=" stroke:none;fill-rule:nonzero;fill:rgb(84.705882%,38.431373%,36.862745%);fill-opacity:1;" d="M 69.160156 37.964844 C 69.160156 39.460938 67.945312 40.675781 66.449219 40.675781 C 64.949219 40.675781 63.734375 39.460938 63.734375 37.964844 C 63.734375 36.46875 64.949219 35.253906 66.449219 35.253906 C 67.945312 35.253906 69.160156 36.46875 69.160156 37.964844 Z M 69.160156 37.964844 "/>
<path style=" stroke:none;fill-rule:nonzero;fill:rgb(95.686275%,80.392157%,11.764706%);fill-opacity:1;" d="M 63.734375 32.542969 C 63.734375 34.039062 62.523438 35.253906 61.023438 35.253906 C 59.527344 35.253906 58.3125 34.039062 58.3125 32.542969 C 58.3125 31.042969 59.527344 29.828125 61.023438 29.828125 C 62.523438 29.828125 63.734375 31.042969 63.734375 32.542969 Z M 63.734375 32.542969 "/>
<path style=" stroke:none;fill-rule:nonzero;fill:rgb(36.470588%,76.470588%,50.980392%);fill-opacity:1;" d="M 49.722656 6.46875 C 49.40625 6.46875 49.101562 6.359375 48.855469 6.15625 C 43.335938 1.566406 35.324219 1.566406 29.804688 6.15625 C 29.226562 6.636719 28.371094 6.558594 27.894531 5.980469 C 27.414062 5.40625 27.492188 4.546875 28.070312 4.070312 C 34.597656 -1.355469 44.066406 -1.355469 50.59375 4.070312 C 51.03125 4.433594 51.195312 5.035156 51.003906 5.574219 C 50.808594 6.113281 50.296875 6.46875 49.722656 6.46875 Z M 49.722656 6.46875 "/>
<path style=" stroke:none;fill-rule:nonzero;fill:rgb(36.470588%,76.470588%,50.980392%);fill-opacity:1;" d="M 47.257812 11.59375 C 46.878906 11.59375 46.519531 11.4375 46.265625 11.164062 C 44.476562 9.234375 41.960938 8.136719 39.332031 8.136719 C 36.699219 8.136719 34.1875 9.234375 32.398438 11.164062 C 31.886719 11.710938 31.027344 11.742188 30.480469 11.230469 C 29.933594 10.71875 29.902344 9.863281 30.414062 9.316406 C 32.714844 6.835938 35.945312 5.425781 39.332031 5.425781 C 42.714844 5.425781 45.945312 6.835938 48.25 9.316406 C 48.617188 9.710938 48.714844 10.285156 48.5 10.78125 C 48.285156 11.273438 47.796875 11.59375 47.257812 11.59375 Z M 47.257812 11.59375 "/>
<path style=" stroke:none;fill-rule:nonzero;fill:rgb(36.470588%,76.470588%,50.980392%);fill-opacity:1;" d="M 43.976562 16.273438 C 43.523438 16.273438 43.101562 16.046875 42.847656 15.667969 C 42.050781 14.476562 40.757812 13.703125 39.332031 13.558594 C 37.902344 13.703125 36.613281 14.476562 35.8125 15.667969 C 35.398438 16.292969 34.554688 16.460938 33.933594 16.042969 C 33.308594 15.628906 33.140625 14.785156 33.558594 14.164062 C 34.851562 12.210938 36.992188 10.984375 39.332031 10.847656 C 41.667969 10.984375 43.808594 12.210938 45.105469 14.164062 C 45.304688 14.460938 45.375 14.828125 45.304688 15.179688 C 45.234375 15.535156 45.027344 15.84375 44.726562 16.042969 C 44.503906 16.191406 44.242188 16.273438 43.976562 16.273438 Z M 43.976562 16.273438 "/>
<path style=" stroke:none;fill-rule:nonzero;fill:rgb(34.509804%,38.431373%,43.921569%);fill-opacity:1;" d="M 28.484375 59.660156 C 27.734375 59.660156 27.128906 59.050781 27.128906 58.300781 L 27.128906 47.457031 C 27.128906 46.707031 27.734375 46.101562 28.484375 46.101562 C 29.234375 46.101562 29.839844 46.707031 29.839844 47.457031 L 29.839844 58.300781 C 29.839844 59.050781 29.234375 59.660156 28.484375 59.660156 Z M 28.484375 59.660156 "/>
<path style=" stroke:none;fill-rule:nonzero;fill:rgb(34.509804%,38.431373%,43.921569%);fill-opacity:1;" d="M 33.90625 54.234375 L 23.0625 54.234375 C 22.3125 54.234375 21.703125 53.628906 21.703125 52.878906 C 21.703125 52.128906 22.3125 51.523438 23.0625 51.523438 L 33.90625 51.523438 C 34.65625 51.523438 35.261719 52.128906 35.261719 52.878906 C 35.261719 53.628906 34.65625 54.234375 33.90625 54.234375 Z M 33.90625 54.234375 "/>
</g>
</svg>
